<?xml version="1.0" encoding="UTF-8" standalone="no"?><svg xmlns="http://www.w3.org/2000/svg" xmlns:xlink="http://www.w3.org/1999/xlink" fill="#000000" height="145" preserveAspectRatio="xMidYMid meet" version="1" viewBox="0.0 0.0 308.7 145.0" width="308.7" zoomAndPan="magnify"><g id="change1_1"><path d="M308.2 144.5L308.2 144 1 144 1 1 307.7 1 307.7 144.5 308.2 144.5 308.2 144 308.2 144.5 308.7 144.5 308.7 0 0 0 0 145 308.7 145 308.7 144.5z" fill="#000000"/></g><g fill="#000000" id="change2_1"><path d="M301.8,138.7L301.8,138.7l0.5,0v-0.5h0C302,138.2,301.8,138.4,301.8,138.7c0,0.3,0.2,0.5,0.5,0.5h0 c0.1,0,0.3-0.1,0.4-0.1c0.1-0.1,0.1-0.2,0.1-0.4v0c0-0.3-0.2-0.5-0.5-0.5S301.8,138.4,301.8,138.7z"/><path d="M8.9,138.2L8.9,138.2c-0.3,0-0.5,0.2-0.5,0.5c0,0.3,0.2,0.5,0.5,0.5h0c0.3,0,0.5-0.2,0.5-0.5 C9.4,138.4,9.2,138.2,8.9,138.2z M10.9,138.2L10.9,138.2c-0.3,0-0.5,0.2-0.5,0.5c0,0.3,0.2,0.5,0.5,0.5h0c0.3,0,0.5-0.2,0.5-0.5 C11.4,138.4,11.2,138.2,10.9,138.2z M13,138.2L13,138.2c-0.3,0-0.5,0.2-0.5,0.5c0,0.3,0.2,0.5,0.5,0.5h0c0.3,0,0.5-0.2,0.5-0.5 C13.5,138.4,13.2,138.2,13,138.2z M15,138.2L15,138.2c-0.3,0-0.5,0.2-0.5,0.5c0,0.3,0.2,0.5,0.5,0.5h0c0.3,0,0.5-0.2,0.5-0.5 C15.5,138.4,15.3,138.2,15,138.2z M17,138.2L17,138.2c-0.3,0-0.5,0.2-0.5,0.5c0,0.3,0.2,0.5,0.5,0.5h0c0.3,0,0.5-0.2,0.5-0.5 C17.5,138.4,17.3,138.2,17,138.2z M19,138.2L19,138.2c-0.3,0-0.5,0.2-0.5,0.5c0,0.3,0.2,0.5,0.5,0.5h0c0.3,0,0.5-0.2,0.5-0.5 C19.5,138.4,19.3,138.2,19,138.2z M21,138.2L21,138.2c-0.3,0-0.5,0.2-0.5,0.5c0,0.3,0.2,0.5,0.5,0.5h0c0.3,0,0.5-0.2,0.5-0.5 C21.5,138.4,21.3,138.2,21,138.2z M23.1,138.2L23.1,138.2c-0.3,0-0.5,0.2-0.5,0.5c0,0.3,0.2,0.5,0.5,0.5h0c0.3,0,0.5-0.2,0.5-0.5 C23.6,138.4,23.3,138.2,23.1,138.2z M25.1,138.2L25.1,138.2c-0.3,0-0.5,0.2-0.5,0.5c0,0.3,0.2,0.5,0.5,0.5h0c0.3,0,0.5-0.2,0.5-0.5 C25.6,138.4,25.4,138.2,25.1,138.2z M27.1,138.2L27.1,138.2c-0.3,0-0.5,0.2-0.5,0.5c0,0.3,0.2,0.5,0.5,0.5h0c0.3,0,0.5-0.2,0.5-0.5 C27.6,138.4,27.4,138.2,27.1,138.2z M29.1,138.2L29.1,138.2c-0.3,0-0.5,0.2-0.5,0.5c0,0.3,0.2,0.5,0.5,0.5h0c0.3,0,0.5-0.2,0.5-0.5 C29.6,138.4,29.4,138.2,29.1,138.2z M31.2,138.2L31.2,138.2c-0.3,0-0.5,0.2-0.5,0.5c0,0.3,0.2,0.5,0.5,0.5h0c0.3,0,0.5-0.2,0.5-0.5 C31.7,138.4,31.4,138.2,31.2,138.2z M33.2,138.2L33.2,138.2c-0.3,0-0.5,0.2-0.5,0.5c0,0.3,0.2,0.5,0.5,0.5h0c0.3,0,0.5-0.2,0.5-0.5 C33.7,138.4,33.5,138.2,33.2,138.2z M35.2,138.2L35.2,138.2c-0.3,0-0.5,0.2-0.5,0.5c0,0.3,0.2,0.5,0.5,0.5h0c0.3,0,0.5-0.2,0.5-0.5 C35.7,138.4,35.5,138.2,35.2,138.2z M37.2,138.2L37.2,138.2c-0.3,0-0.5,0.2-0.5,0.5c0,0.3,0.2,0.5,0.5,0.5h0c0.3,0,0.5-0.2,0.5-0.5 C37.7,138.4,37.5,138.2,37.2,138.2z M39.3,138.2L39.3,138.2c-0.3,0-0.5,0.2-0.5,0.5c0,0.3,0.2,0.5,0.5,0.5h0c0.3,0,0.5-0.2,0.5-0.5 C39.8,138.4,39.5,138.2,39.3,138.2z M41.3,138.2L41.3,138.2c-0.3,0-0.5,0.2-0.5,0.5c0,0.3,0.2,0.5,0.5,0.5h0c0.3,0,0.5-0.2,0.5-0.5 C41.8,138.4,41.6,138.2,41.3,138.2z M43.3,138.2L43.3,138.2c-0.3,0-0.5,0.2-0.5,0.5c0,0.3,0.2,0.5,0.5,0.5h0c0.3,0,0.5-0.2,0.5-0.5 C43.8,138.4,43.6,138.2,43.3,138.2z M45.3,138.2L45.3,138.2c-0.3,0-0.5,0.2-0.5,0.5c0,0.3,0.2,0.5,0.5,0.5h0c0.3,0,0.5-0.2,0.5-0.5 C45.8,138.4,45.6,138.2,45.3,138.2z M47.4,138.2L47.4,138.2c-0.3,0-0.5,0.2-0.5,0.5c0,0.3,0.2,0.5,0.5,0.5h0c0.3,0,0.5-0.2,0.5-0.5 C47.9,138.4,47.6,138.2,47.4,138.2z M49.4,138.2L49.4,138.2c-0.3,0-0.5,0.2-0.5,0.5c0,0.3,0.2,0.5,0.5,0.5h0c0.3,0,0.5-0.2,0.5-0.5 C49.9,138.4,49.7,138.2,49.4,138.2z M51.4,138.2L51.4,138.2c-0.3,0-0.5,0.2-0.5,0.5c0,0.3,0.2,0.5,0.5,0.5h0c0.3,0,0.5-0.2,0.5-0.5 C51.9,138.4,51.7,138.2,51.4,138.2z M53.4,138.2L53.4,138.2c-0.3,0-0.5,0.2-0.5,0.5c0,0.3,0.2,0.5,0.5,0.5h0c0.3,0,0.5-0.2,0.5-0.5 C53.9,138.4,53.7,138.2,53.4,138.2z M55.4,138.2L55.4,138.2c-0.3,0-0.5,0.2-0.5,0.5c0,0.3,0.2,0.5,0.5,0.5h0c0.3,0,0.5-0.2,0.5-0.5 C55.9,138.4,55.7,138.2,55.4,138.2z M57.5,138.2L57.5,138.2c-0.3,0-0.5,0.2-0.5,0.5c0,0.3,0.2,0.5,0.5,0.5h0c0.3,0,0.5-0.2,0.5-0.5 C58,138.4,57.7,138.2,57.5,138.2z M59.5,138.2L59.5,138.2c-0.3,0-0.5,0.2-0.5,0.5c0,0.3,0.2,0.5,0.5,0.5h0c0.3,0,0.5-0.2,0.5-0.5 C60,138.4,59.8,138.2,59.5,138.2z M61.5,138.2L61.5,138.2c-0.3,0-0.5,0.2-0.5,0.5c0,0.3,0.2,0.5,0.5,0.5h0c0.3,0,0.5-0.2,0.5-0.5 C62,138.4,61.8,138.2,61.5,138.2z M63.5,138.2L63.5,138.2c-0.3,0-0.5,0.2-0.5,0.5c0,0.3,0.2,0.5,0.5,0.5h0c0.3,0,0.5-0.2,0.5-0.5 C64,138.4,63.8,138.2,63.5,138.2z M65.6,138.2L65.6,138.2c-0.3,0-0.5,0.2-0.5,0.5c0,0.3,0.2,0.5,0.5,0.5h0c0.3,0,0.5-0.2,0.5-0.5 C66.1,138.4,65.8,138.2,65.6,138.2z M67.6,138.2L67.6,138.2c-0.3,0-0.5,0.2-0.5,0.5c0,0.3,0.2,0.5,0.5,0.5h0c0.3,0,0.5-0.2,0.5-0.5 C68.1,138.4,67.9,138.2,67.6,138.2z M69.6,138.2L69.6,138.2c-0.3,0-0.5,0.2-0.5,0.5c0,0.3,0.2,0.5,0.5,0.5h0c0.3,0,0.5-0.2,0.5-0.5 C70.1,138.4,69.9,138.2,69.6,138.2z M71.6,138.2L71.6,138.2c-0.3,0-0.5,0.2-0.5,0.5c0,0.3,0.2,0.5,0.5,0.5h0c0.3,0,0.5-0.2,0.5-0.5 C72.1,138.4,71.9,138.2,71.6,138.2z M73.7,138.2L73.7,138.2c-0.3,0-0.5,0.2-0.5,0.5c0,0.3,0.2,0.5,0.5,0.5h0c0.3,0,0.5-0.2,0.5-0.5 C74.2,138.4,73.9,138.2,73.7,138.2z M75.7,138.2L75.7,138.2c-0.3,0-0.5,0.2-0.5,0.5c0,0.3,0.2,0.5,0.5,0.5h0c0.3,0,0.5-0.2,0.5-0.5 C76.2,138.4,76,138.2,75.7,138.2z M77.7,138.2L77.7,138.2c-0.3,0-0.5,0.2-0.5,0.5c0,0.3,0.2,0.5,0.5,0.5h0c0.3,0,0.5-0.2,0.5-0.5 C78.2,138.4,78,138.2,77.7,138.2z M79.7,138.2L79.7,138.2c-0.3,0-0.5,0.2-0.5,0.5c0,0.3,0.2,0.5,0.5,0.5h0c0.3,0,0.5-0.2,0.5-0.5 C80.2,138.4,80,138.2,79.7,138.2z M81.8,138.2L81.8,138.2c-0.3,0-0.5,0.2-0.5,0.5c0,0.3,0.2,0.5,0.5,0.5h0c0.3,0,0.5-0.2,0.5-0.5 C82.3,138.4,82,138.2,81.8,138.2z M83.8,138.2L83.8,138.2c-0.3,0-0.5,0.2-0.5,0.5c0,0.3,0.2,0.5,0.5,0.5h0c0.3,0,0.5-0.2,0.5-0.5 C84.3,138.4,84.1,138.2,83.8,138.2z M85.8,138.2L85.8,138.2c-0.3,0-0.5,0.2-0.5,0.5c0,0.3,0.2,0.5,0.5,0.5h0c0.3,0,0.5-0.2,0.5-0.5 C86.3,138.4,86.1,138.2,85.8,138.2z M87.8,138.2L87.8,138.2c-0.3,0-0.5,0.2-0.5,0.5c0,0.3,0.2,0.5,0.5,0.5h0c0.3,0,0.5-0.2,0.5-0.5 C88.3,138.4,88.1,138.2,87.8,138.2z M89.9,138.2L89.9,138.2c-0.3,0-0.5,0.2-0.5,0.5c0,0.3,0.2,0.5,0.5,0.5h0c0.3,0,0.5-0.2,0.5-0.5 C90.4,138.4,90.1,138.2,89.9,138.2z M91.9,138.2L91.9,138.2c-0.3,0-0.5,0.2-0.5,0.5c0,0.3,0.2,0.5,0.5,0.5h0c0.3,0,0.5-0.2,0.5-0.5 C92.4,138.4,92.2,138.2,91.9,138.2z M93.9,138.2L93.9,138.2c-0.3,0-0.5,0.2-0.5,0.5c0,0.3,0.2,0.5,0.5,0.5h0c0.3,0,0.5-0.2,0.5-0.5 C94.4,138.4,94.2,138.2,93.9,138.2z M95.9,138.2L95.9,138.2c-0.3,0-0.5,0.2-0.5,0.5c0,0.3,0.2,0.5,0.5,0.5h0c0.3,0,0.5-0.2,0.5-0.5 C96.4,138.4,96.2,138.2,95.9,138.2z M97.9,138.2L97.9,138.2c-0.3,0-0.5,0.2-0.5,0.5c0,0.3,0.2,0.5,0.5,0.5h0c0.3,0,0.5-0.2,0.5-0.5 C98.4,138.4,98.2,138.2,97.9,138.2z M100,138.2L100,138.2c-0.3,0-0.5,0.2-0.5,0.5c0,0.3,0.2,0.5,0.5,0.5h0c0.3,0,0.5-0.2,0.5-0.5 C100.5,138.4,100.2,138.2,100,138.2z M102,138.2L102,138.2c-0.3,0-0.5,0.2-0.5,0.5c0,0.3,0.2,0.5,0.5,0.5h0c0.3,0,0.5-0.2,0.5-0.5 C102.5,138.4,102.3,138.2,102,138.2z M104,138.2L104,138.2c-0.3,0-0.5,0.2-0.5,0.5c0,0.3,0.2,0.5,0.5,0.5h0c0.3,0,0.5-0.2,0.5-0.5 C104.5,138.4,104.3,138.2,104,138.2z M106,138.2L106,138.2c-0.3,0-0.5,0.2-0.5,0.5c0,0.3,0.2,0.5,0.5,0.5h0c0.3,0,0.5-0.2,0.5-0.5 C106.5,138.4,106.3,138.2,106,138.2z M108.1,138.2L108.1,138.2c-0.3,0-0.5,0.2-0.5,0.5c0,0.3,0.2,0.5,0.5,0.5h0 c0.3,0,0.5-0.2,0.5-0.5C108.6,138.4,108.3,138.2,108.1,138.2z M110.1,138.2L110.1,138.2c-0.3,0-0.5,0.2-0.5,0.5 c0,0.3,0.2,0.5,0.5,0.5h0c0.3,0,0.5-0.2,0.5-0.5C110.6,138.4,110.4,138.2,110.1,138.2z M112.1,138.2L112.1,138.2 c-0.3,0-0.5,0.2-0.5,0.5c0,0.3,0.2,0.5,0.5,0.5h0c0.3,0,0.5-0.2,0.5-0.5C112.6,138.4,112.4,138.2,112.1,138.2z M114.1,138.2 L114.1,138.2c-0.3,0-0.5,0.2-0.5,0.5c0,0.3,0.2,0.5,0.5,0.5h0c0.3,0,0.5-0.2,0.5-0.5C114.6,138.4,114.4,138.2,114.1,138.2z M116.2,138.2L116.2,138.2c-0.3,0-0.5,0.2-0.5,0.5c0,0.3,0.2,0.5,0.5,0.5h0c0.3,0,0.5-0.2,0.5-0.5 C116.7,138.4,116.4,138.2,116.2,138.2z M118.2,138.2L118.2,138.2c-0.3,0-0.5,0.2-0.5,0.5c0,0.3,0.2,0.5,0.5,0.5h0 c0.3,0,0.5-0.2,0.5-0.5C118.7,138.4,118.5,138.2,118.2,138.2z M120.2,138.2L120.2,138.2c-0.3,0-0.5,0.2-0.5,0.5 c0,0.3,0.2,0.5,0.5,0.5h0c0.3,0,0.5-0.2,0.5-0.5C120.7,138.4,120.5,138.2,120.2,138.2z M122.2,138.2L122.2,138.2 c-0.3,0-0.5,0.2-0.5,0.5c0,0.3,0.2,0.5,0.5,0.5h0c0.3,0,0.5-0.2,0.5-0.5C122.7,138.4,122.5,138.2,122.2,138.2z M124.3,138.2 L124.3,138.2c-0.3,0-0.5,0.2-0.5,0.5c0,0.3,0.2,0.5,0.5,0.5h0c0.3,0,0.5-0.2,0.5-0.5C124.8,138.4,124.5,138.2,124.3,138.2z M126.3,138.2L126.3,138.2c-0.3,0-0.5,0.2-0.5,0.5c0,0.3,0.2,0.5,0.5,0.5h0c0.3,0,0.5-0.2,0.5-0.5 C126.8,138.4,126.6,138.2,126.3,138.2z M128.3,138.2L128.3,138.2c-0.3,0-0.5,0.2-0.5,0.5c0,0.3,0.2,0.5,0.5,0.5h0 c0.3,0,0.5-0.2,0.5-0.5C128.8,138.4,128.6,138.2,128.3,138.2z M130.3,138.2L130.3,138.2c-0.3,0-0.5,0.2-0.5,0.5 c0,0.3,0.2,0.5,0.5,0.5h0c0.3,0,0.5-0.2,0.5-0.5C130.8,138.4,130.6,138.2,130.3,138.2z M132.3,138.2L132.3,138.2 c-0.3,0-0.5,0.2-0.5,0.5c0,0.3,0.2,0.5,0.5,0.5h0c0.3,0,0.5-0.2,0.5-0.5C132.8,138.4,132.6,138.2,132.3,138.2z M134.4,138.2 L134.4,138.2c-0.3,0-0.5,0.2-0.5,0.5c0,0.3,0.2,0.5,0.5,0.5h0c0.3,0,0.5-0.2,0.5-0.5C134.9,138.4,134.6,138.2,134.4,138.2z M136.4,138.2L136.4,138.2c-0.3,0-0.5,0.2-0.5,0.5c0,0.3,0.2,0.5,0.5,0.5h0c0.3,0,0.5-0.2,0.5-0.5 C136.9,138.4,136.7,138.2,136.4,138.2z M138.4,138.2L138.4,138.2c-0.3,0-0.5,0.2-0.5,0.5c0,0.3,0.2,0.5,0.5,0.5h0 c0.3,0,0.5-0.2,0.5-0.5C138.9,138.4,138.7,138.2,138.4,138.2z M140.4,138.2L140.4,138.2c-0.3,0-0.5,0.2-0.5,0.5 c0,0.3,0.2,0.5,0.5,0.5h0c0.3,0,0.5-0.2,0.5-0.5C140.9,138.4,140.7,138.2,140.4,138.2z M142.5,138.2L142.5,138.2 c-0.3,0-0.5,0.2-0.5,0.5c0,0.3,0.2,0.5,0.5,0.5h0c0.3,0,0.5-0.2,0.5-0.5C143,138.4,142.7,138.2,142.5,138.2z M144.5,138.2 L144.5,138.2c-0.3,0-0.5,0.2-0.5,0.5c0,0.3,0.2,0.5,0.5,0.5h0c0.3,0,0.5-0.2,0.5-0.5C145,138.4,144.8,138.2,144.5,138.2z M146.5,138.2L146.5,138.2c-0.3,0-0.5,0.2-0.5,0.5c0,0.3,0.2,0.5,0.5,0.5h0c0.3,0,0.5-0.2,0.5-0.5 C147,138.4,146.8,138.2,146.5,138.2z M148.5,138.2L148.5,138.2c-0.3,0-0.5,0.2-0.5,0.5c0,0.3,0.2,0.5,0.5,0.5h0 c0.3,0,0.5-0.2,0.5-0.5C149,138.4,148.8,138.2,148.5,138.2z M150.6,138.2L150.6,138.2c-0.3,0-0.5,0.2-0.5,0.5 c0,0.3,0.2,0.5,0.5,0.5h0c0.3,0,0.5-0.2,0.5-0.5C151.1,138.4,150.8,138.2,150.6,138.2z M152.6,138.2L152.6,138.2 c-0.3,0-0.5,0.2-0.5,0.5c0,0.3,0.2,0.5,0.5,0.5h0c0.3,0,0.5-0.2,0.5-0.5C153.1,138.4,152.9,138.2,152.6,138.2z M154.6,138.2 L154.6,138.2c-0.3,0-0.5,0.2-0.5,0.5c0,0.3,0.2,0.5,0.5,0.5h0c0.3,0,0.5-0.2,0.5-0.5C155.1,138.4,154.9,138.2,154.6,138.2z M156.6,138.2L156.6,138.2c-0.3,0-0.5,0.2-0.5,0.5c0,0.3,0.2,0.5,0.5,0.5h0c0.3,0,0.5-0.2,0.5-0.5 C157.1,138.4,156.9,138.2,156.6,138.2z M158.7,138.2L158.7,138.2c-0.3,0-0.5,0.2-0.5,0.5c0,0.3,0.2,0.5,0.5,0.5h0 c0.3,0,0.5-0.2,0.5-0.5C159.2,138.4,158.9,138.2,158.7,138.2z M160.7,138.2L160.7,138.2c-0.3,0-0.5,0.2-0.5,0.5 c0,0.3,0.2,0.5,0.5,0.5h0c0.3,0,0.5-0.2,0.5-0.5C161.2,138.4,161,138.2,160.7,138.2z M162.7,138.2L162.7,138.2 c-0.3,0-0.5,0.2-0.5,0.5c0,0.3,0.2,0.5,0.5,0.5h0c0.3,0,0.5-0.2,0.5-0.5C163.2,138.4,163,138.2,162.7,138.2z M164.7,138.2 L164.7,138.2c-0.3,0-0.5,0.2-0.5,0.5c0,0.3,0.2,0.5,0.5,0.5h0c0.3,0,0.5-0.2,0.5-0.5C165.2,138.4,165,138.2,164.7,138.2z M166.7,138.2L166.7,138.2c-0.3,0-0.5,0.2-0.5,0.5c0,0.3,0.2,0.5,0.5,0.5h0c0.3,0,0.5-0.2,0.5-0.5 C167.2,138.4,167,138.2,166.7,138.2z M168.8,138.2L168.8,138.2c-0.3,0-0.5,0.2-0.5,0.5c0,0.3,0.2,0.5,0.5,0.5h0 c0.3,0,0.5-0.2,0.5-0.5C169.3,138.4,169,138.2,168.8,138.2z M170.8,138.2L170.8,138.2c-0.3,0-0.5,0.2-0.5,0.5 c0,0.3,0.2,0.5,0.5,0.5h0c0.3,0,0.5-0.2,0.5-0.5C171.3,138.4,171.1,138.2,170.8,138.2z M172.8,138.2L172.8,138.2 c-0.3,0-0.5,0.2-0.5,0.5c0,0.3,0.2,0.5,0.5,0.5h0c0.3,0,0.5-0.2,0.5-0.5C173.3,138.4,173.1,138.2,172.8,138.2z M174.8,138.2 L174.8,138.2c-0.3,0-0.5,0.2-0.5,0.5c0,0.3,0.2,0.5,0.5,0.5h0c0.3,0,0.5-0.2,0.5-0.5C175.3,138.4,175.1,138.2,174.8,138.2z M176.9,138.2L176.9,138.2c-0.3,0-0.5,0.2-0.5,0.5c0,0.3,0.2,0.5,0.5,0.5h0c0.3,0,0.5-0.2,0.5-0.5 C177.4,138.4,177.1,138.2,176.9,138.2z M178.9,138.2L178.9,138.2c-0.3,0-0.5,0.2-0.5,0.5c0,0.3,0.2,0.5,0.5,0.5h0 c0.3,0,0.5-0.2,0.5-0.5C179.4,138.4,179.2,138.2,178.9,138.2z M180.9,138.2L180.9,138.2c-0.3,0-0.5,0.2-0.5,0.5 c0,0.3,0.2,0.5,0.5,0.5h0c0.3,0,0.5-0.2,0.5-0.5C181.4,138.4,181.2,138.2,180.9,138.2z M182.9,138.2L182.9,138.2 c-0.3,0-0.5,0.2-0.5,0.5c0,0.3,0.2,0.5,0.5,0.5h0c0.3,0,0.5-0.2,0.5-0.5C183.4,138.4,183.2,138.2,182.9,138.2z M185,138.2 L185,138.2c-0.3,0-0.5,0.2-0.5,0.5c0,0.3,0.2,0.5,0.5,0.5h0c0.3,0,0.5-0.2,0.5-0.5C185.5,138.4,185.2,138.2,185,138.2z M187,138.2 L187,138.2c-0.3,0-0.5,0.2-0.5,0.5c0,0.3,0.2,0.5,0.5,0.5h0c0.3,0,0.5-0.2,0.5-0.5C187.5,138.4,187.3,138.2,187,138.2z M189,138.2 L189,138.2c-0.3,0-0.5,0.2-0.5,0.5c0,0.3,0.2,0.5,0.5,0.5h0c0.3,0,0.5-0.2,0.5-0.5C189.5,138.4,189.3,138.2,189,138.2z M191,138.2 L191,138.2c-0.3,0-0.5,0.2-0.5,0.5c0,0.3,0.2,0.5,0.5,0.5h0c0.3,0,0.5-0.2,0.5-0.5C191.5,138.4,191.3,138.2,191,138.2z M193.1,138.2L193.1,138.2c-0.3,0-0.5,0.2-0.5,0.5c0,0.3,0.2,0.5,0.5,0.5h0c0.3,0,0.5-0.2,0.5-0.5 C193.6,138.4,193.3,138.2,193.1,138.2z M195.1,138.2L195.1,138.2c-0.3,0-0.5,0.2-0.5,0.5c0,0.3,0.2,0.5,0.5,0.5h0 c0.3,0,0.5-0.2,0.5-0.5C195.6,138.4,195.4,138.2,195.1,138.2z M197.1,138.2L197.1,138.2c-0.3,0-0.5,0.2-0.5,0.5 c0,0.3,0.2,0.5,0.5,0.5h0c0.3,0,0.5-0.2,0.5-0.5C197.6,138.4,197.4,138.2,197.1,138.2z M199.1,138.2L199.1,138.2 c-0.3,0-0.5,0.2-0.5,0.5c0,0.3,0.2,0.5,0.5,0.5h0c0.3,0,0.5-0.2,0.5-0.5C199.6,138.4,199.4,138.2,199.1,138.2z M201.2,138.2 L201.2,138.2c-0.3,0-0.5,0.2-0.5,0.5c0,0.3,0.2,0.5,0.5,0.5h0c0.3,0,0.5-0.2,0.5-0.5C201.7,138.4,201.4,138.2,201.2,138.2z M203.2,138.2L203.2,138.2c-0.3,0-0.5,0.2-0.5,0.5c0,0.3,0.2,0.5,0.5,0.5h0c0.3,0,0.5-0.2,0.5-0.5 C203.7,138.4,203.5,138.2,203.2,138.2z M205.2,138.2L205.2,138.2c-0.3,0-0.5,0.2-0.5,0.5c0,0.3,0.2,0.5,0.5,0.5h0 c0.3,0,0.5-0.2,0.5-0.5C205.7,138.4,205.5,138.2,205.2,138.2z M207.2,138.2L207.2,138.2c-0.3,0-0.5,0.2-0.5,0.5 c0,0.3,0.2,0.5,0.5,0.5h0c0.3,0,0.5-0.2,0.5-0.5C207.7,138.4,207.5,138.2,207.2,138.2z M209.2,138.2L209.2,138.2 c-0.3,0-0.5,0.2-0.5,0.5c0,0.3,0.2,0.5,0.5,0.5h0c0.3,0,0.5-0.2,0.5-0.5C209.7,138.4,209.5,138.2,209.2,138.2z M211.3,138.2 L211.3,138.2c-0.3,0-0.5,0.2-0.5,0.5c0,0.3,0.2,0.5,0.5,0.5h0c0.3,0,0.5-0.2,0.5-0.5C211.8,138.4,211.5,138.2,211.3,138.2z M213.3,138.2L213.3,138.2c-0.3,0-0.5,0.2-0.5,0.5c0,0.3,0.2,0.5,0.5,0.5h0c0.3,0,0.5-0.2,0.5-0.5 C213.8,138.4,213.6,138.2,213.3,138.2z M215.3,138.2L215.3,138.2c-0.3,0-0.5,0.2-0.5,0.5c0,0.3,0.2,0.5,0.5,0.5h0 c0.3,0,0.5-0.2,0.5-0.5C215.8,138.4,215.6,138.2,215.3,138.2z M217.3,138.2L217.3,138.2c-0.3,0-0.5,0.2-0.5,0.5 c0,0.3,0.2,0.5,0.5,0.5h0c0.3,0,0.5-0.2,0.5-0.5C217.8,138.4,217.6,138.2,217.3,138.2z M219.4,138.2L219.4,138.2 c-0.3,0-0.5,0.2-0.5,0.5c0,0.3,0.2,0.5,0.5,0.5h0c0.3,0,0.5-0.2,0.5-0.5C219.9,138.4,219.6,138.2,219.4,138.2z M221.4,138.2 L221.4,138.2c-0.3,0-0.5,0.2-0.5,0.5c0,0.3,0.2,0.5,0.5,0.5h0c0.3,0,0.5-0.2,0.5-0.5C221.9,138.4,221.7,138.2,221.4,138.2z M223.4,138.2L223.4,138.2c-0.3,0-0.5,0.2-0.5,0.5c0,0.3,0.2,0.5,0.5,0.5h0c0.3,0,0.5-0.2,0.5-0.5 C223.9,138.4,223.7,138.2,223.4,138.2z M225.4,138.2L225.4,138.2c-0.3,0-0.5,0.2-0.5,0.5c0,0.3,0.2,0.5,0.5,0.5h0 c0.3,0,0.5-0.2,0.5-0.5C225.9,138.4,225.7,138.2,225.4,138.2z M227.5,138.2L227.5,138.2c-0.3,0-0.5,0.2-0.5,0.5 c0,0.3,0.2,0.5,0.5,0.5h0c0.3,0,0.5-0.2,0.5-0.5C228,138.4,227.7,138.2,227.5,138.2z M229.5,138.2L229.5,138.2 c-0.3,0-0.5,0.2-0.5,0.5c0,0.3,0.2,0.5,0.5,0.5h0c0.3,0,0.5-0.2,0.5-0.5C230,138.4,229.8,138.2,229.5,138.2z M231.5,138.2 L231.5,138.2c-0.3,0-0.5,0.2-0.5,0.5c0,0.3,0.2,0.5,0.5,0.5h0c0.3,0,0.5-0.2,0.5-0.5C232,138.4,231.8,138.2,231.5,138.2z M233.5,138.2L233.5,138.2c-0.3,0-0.5,0.2-0.5,0.5c0,0.3,0.2,0.5,0.5,0.5h0c0.3,0,0.5-0.2,0.5-0.5 C234,138.4,233.8,138.2,233.5,138.2z M235.6,138.2L235.6,138.2c-0.3,0-0.5,0.2-0.5,0.5c0,0.3,0.2,0.5,0.5,0.5h0 c0.3,0,0.5-0.2,0.5-0.5C236.1,138.4,235.8,138.2,235.6,138.2z M237.6,138.2L237.6,138.2c-0.3,0-0.5,0.2-0.5,0.5 c0,0.3,0.2,0.5,0.5,0.5h0c0.3,0,0.5-0.2,0.5-0.5C238.1,138.4,237.9,138.2,237.6,138.2z M239.6,138.2L239.6,138.2 c-0.3,0-0.5,0.2-0.5,0.5c0,0.3,0.2,0.5,0.5,0.5h0c0.3,0,0.5-0.2,0.5-0.5C240.1,138.4,239.9,138.2,239.6,138.2z M241.6,138.2 L241.6,138.2c-0.3,0-0.5,0.2-0.5,0.5c0,0.3,0.2,0.5,0.5,0.5h0c0.3,0,0.5-0.2,0.5-0.5C242.1,138.4,241.9,138.2,241.6,138.2z M243.6,138.2L243.6,138.2c-0.3,0-0.5,0.2-0.5,0.5c0,0.3,0.2,0.5,0.5,0.5h0c0.3,0,0.5-0.2,0.5-0.5 C244.1,138.4,243.9,138.2,243.6,138.2z M245.7,138.2L245.7,138.2c-0.3,0-0.5,0.2-0.5,0.5c0,0.3,0.2,0.5,0.5,0.5h0 c0.3,0,0.5-0.2,0.5-0.5C246.2,138.4,245.9,138.2,245.7,138.2z M247.7,138.2L247.7,138.2c-0.3,0-0.5,0.2-0.5,0.5 c0,0.3,0.2,0.5,0.5,0.5h0c0.3,0,0.5-0.2,0.5-0.5C248.2,138.4,248,138.2,247.7,138.2z M249.7,138.2L249.7,138.2 c-0.3,0-0.5,0.2-0.5,0.5c0,0.3,0.2,0.5,0.5,0.5h0c0.3,0,0.5-0.2,0.5-0.5C250.2,138.4,250,138.2,249.7,138.2z M251.7,138.2 L251.7,138.2c-0.3,0-0.5,0.2-0.5,0.5c0,0.3,0.2,0.5,0.5,0.5h0c0.3,0,0.5-0.2,0.5-0.5C252.2,138.4,252,138.2,251.7,138.2z M253.8,138.2L253.8,138.2c-0.3,0-0.5,0.2-0.5,0.5c0,0.3,0.2,0.5,0.5,0.5h0c0.3,0,0.5-0.2,0.5-0.5 C254.3,138.4,254,138.2,253.8,138.2z M255.8,138.2L255.8,138.2c-0.3,0-0.5,0.2-0.5,0.5c0,0.3,0.2,0.5,0.5,0.5h0 c0.3,0,0.5-0.2,0.5-0.5C256.3,138.4,256.1,138.2,255.8,138.2z M257.8,138.2L257.8,138.2c-0.3,0-0.5,0.2-0.5,0.5 c0,0.3,0.2,0.5,0.5,0.5h0c0.3,0,0.5-0.2,0.5-0.5C258.3,138.4,258.1,138.2,257.8,138.2z M259.8,138.2L259.8,138.2 c-0.3,0-0.5,0.2-0.5,0.5c0,0.3,0.2,0.5,0.5,0.5h0c0.3,0,0.5-0.2,0.5-0.5C260.3,138.4,260.1,138.2,259.8,138.2z M261.9,138.2 L261.9,138.2c-0.3,0-0.5,0.2-0.5,0.5c0,0.3,0.2,0.5,0.5,0.5h0c0.3,0,0.5-0.2,0.5-0.5C262.4,138.4,262.1,138.2,261.9,138.2z M263.9,138.2L263.9,138.2c-0.3,0-0.5,0.2-0.5,0.5c0,0.3,0.2,0.5,0.5,0.5h0c0.3,0,0.5-0.2,0.5-0.5 C264.4,138.4,264.2,138.2,263.9,138.2z M265.9,138.2L265.9,138.2c-0.3,0-0.5,0.2-0.5,0.5c0,0.3,0.2,0.5,0.5,0.5h0 c0.3,0,0.5-0.2,0.5-0.5C266.4,138.4,266.2,138.2,265.9,138.2z M267.9,138.2L267.9,138.2c-0.3,0-0.5,0.2-0.5,0.5 c0,0.3,0.2,0.5,0.5,0.5h0c0.3,0,0.5-0.2,0.5-0.5C268.4,138.4,268.2,138.2,267.9,138.2z M270,138.2L270,138.2 c-0.3,0-0.5,0.2-0.5,0.5c0,0.3,0.2,0.5,0.5,0.5h0c0.3,0,0.5-0.2,0.5-0.5C270.5,138.4,270.2,138.2,270,138.2z M272,138.2L272,138.2 c-0.3,0-0.5,0.2-0.5,0.5c0,0.3,0.2,0.5,0.5,0.5h0c0.3,0,0.5-0.2,0.5-0.5C272.5,138.4,272.3,138.2,272,138.2z M274,138.2L274,138.2 c-0.3,0-0.5,0.2-0.5,0.5c0,0.3,0.2,0.5,0.5,0.5h0c0.3,0,0.5-0.2,0.5-0.5C274.5,138.4,274.3,138.2,274,138.2z M276,138.2L276,138.2 c-0.3,0-0.5,0.2-0.5,0.5c0,0.3,0.2,0.5,0.5,0.5h0c0.3,0,0.5-0.2,0.5-0.5C276.5,138.4,276.3,138.2,276,138.2z M278,138.2L278,138.2 c-0.3,0-0.5,0.2-0.5,0.5c0,0.3,0.2,0.5,0.5,0.5h0c0.3,0,0.5-0.2,0.5-0.5C278.5,138.4,278.3,138.2,278,138.2z M280.1,138.2 L280.1,138.2c-0.3,0-0.5,0.2-0.5,0.5c0,0.3,0.2,0.5,0.5,0.5h0c0.3,0,0.5-0.2,0.5-0.5C280.6,138.4,280.3,138.2,280.1,138.2z M282.1,138.2L282.1,138.2c-0.3,0-0.5,0.2-0.5,0.5c0,0.3,0.2,0.5,0.5,0.5h0c0.3,0,0.5-0.2,0.5-0.5 C282.6,138.4,282.4,138.2,282.1,138.2z M284.1,138.2L284.1,138.2c-0.3,0-0.5,0.2-0.5,0.5c0,0.3,0.2,0.5,0.5,0.5h0 c0.3,0,0.5-0.2,0.5-0.5C284.6,138.4,284.4,138.2,284.1,138.2z M286.1,138.2L286.1,138.2c-0.3,0-0.5,0.2-0.5,0.5 c0,0.3,0.2,0.5,0.5,0.5h0c0.3,0,0.5-0.2,0.5-0.5C286.6,138.4,286.4,138.2,286.1,138.2z M288.2,138.2L288.2,138.2 c-0.3,0-0.5,0.2-0.5,0.5c0,0.3,0.2,0.5,0.5,0.5h0c0.3,0,0.5-0.2,0.5-0.5C288.7,138.4,288.4,138.2,288.2,138.2z M290.2,138.2 L290.2,138.2c-0.3,0-0.5,0.2-0.5,0.5c0,0.3,0.2,0.5,0.5,0.5h0c0.3,0,0.5-0.2,0.5-0.5C290.7,138.4,290.5,138.2,290.2,138.2z M292.2,138.2L292.2,138.2c-0.3,0-0.5,0.2-0.5,0.5c0,0.3,0.2,0.5,0.5,0.5h0c0.3,0,0.5-0.2,0.5-0.5 C292.7,138.4,292.5,138.2,292.2,138.2z M294.2,138.2L294.2,138.2c-0.3,0-0.5,0.2-0.5,0.5c0,0.3,0.2,0.5,0.5,0.5h0 c0.3,0,0.5-0.2,0.5-0.5C294.7,138.4,294.5,138.2,294.2,138.2z M296.3,138.2L296.3,138.2c-0.3,0-0.5,0.2-0.5,0.5 c0,0.3,0.2,0.5,0.5,0.5h0c0.3,0,0.5-0.2,0.5-0.5C296.8,138.4,296.5,138.2,296.3,138.2z M298.3,138.2L298.3,138.2 c-0.3,0-0.5,0.2-0.5,0.5c0,0.3,0.2,0.5,0.5,0.5h0c0.3,0,0.5-0.2,0.5-0.5C298.8,138.4,298.6,138.2,298.3,138.2z M300.3,138.2 L300.3,138.2c-0.3,0-0.5,0.2-0.5,0.5c0,0.3,0.2,0.5,0.5,0.5h0c0.3,0,0.5-0.2,0.5-0.5C300.8,138.4,300.6,138.2,300.3,138.2z"/><path d="M6.9,138.2L6.9,138.2l0,0.5h0.5v0C7.4,138.4,7.1,138.2,6.9,138.2c-0.3,0-0.5,0.2-0.5,0.5v0 c0,0.1,0.1,0.3,0.1,0.4c0.1,0.1,0.2,0.1,0.4,0.1h0c0.3,0,0.5-0.2,0.5-0.5C7.4,138.4,7.2,138.2,6.9,138.2z"/><path d="M7.4,8.6L7.4,8.6c0-0.3-0.2-0.5-0.5-0.5c-0.3,0-0.5,0.2-0.5,0.5v0c0,0.3,0.2,0.5,0.5,0.5 C7.1,9.1,7.4,8.9,7.4,8.6z M7.4,10.6L7.4,10.6c0-0.3-0.2-0.5-0.5-0.5c-0.3,0-0.5,0.2-0.5,0.5v0c0,0.3,0.2,0.5,0.5,0.5 C7.1,11.1,7.4,10.9,7.4,10.6z M7.4,12.7L7.4,12.7c0-0.3-0.2-0.5-0.5-0.5c-0.3,0-0.5,0.2-0.5,0.5v0c0,0.3,0.2,0.5,0.5,0.5 C7.1,13.2,7.4,13,7.4,12.7z M7.4,14.7L7.4,14.7c0-0.3-0.2-0.5-0.5-0.5c-0.3,0-0.5,0.2-0.5,0.5v0c0,0.3,0.2,0.5,0.5,0.5 C7.1,15.2,7.4,15,7.4,14.7z M7.4,16.7L7.4,16.7c0-0.3-0.2-0.5-0.5-0.5c-0.3,0-0.5,0.2-0.5,0.5v0c0,0.3,0.2,0.5,0.5,0.5 C7.1,17.2,7.4,17,7.4,16.7z M7.4,18.8L7.4,18.8c0-0.3-0.2-0.5-0.5-0.5c-0.3,0-0.5,0.2-0.5,0.5v0c0,0.3,0.2,0.5,0.5,0.5 C7.1,19.3,7.4,19.1,7.4,18.8z M7.4,20.8L7.4,20.8c0-0.3-0.2-0.5-0.5-0.5c-0.3,0-0.5,0.2-0.5,0.5v0c0,0.3,0.2,0.5,0.5,0.5 C7.1,21.3,7.4,21.1,7.4,20.8z M7.4,22.8L7.4,22.8c0-0.3-0.2-0.5-0.5-0.5c-0.3,0-0.5,0.2-0.5,0.5v0c0,0.3,0.2,0.5,0.5,0.5 C7.1,23.3,7.4,23.1,7.4,22.8z M7.4,24.9L7.4,24.9c0-0.3-0.2-0.5-0.5-0.5c-0.3,0-0.5,0.2-0.5,0.5v0c0,0.3,0.2,0.5,0.5,0.5 C7.1,25.4,7.4,25.2,7.4,24.9z M7.4,26.9L7.4,26.9c0-0.3-0.2-0.5-0.5-0.5c-0.3,0-0.5,0.2-0.5,0.5v0c0,0.3,0.2,0.5,0.5,0.5 C7.1,27.4,7.4,27.2,7.4,26.9z M7.4,28.9L7.4,28.9c0-0.3-0.2-0.5-0.5-0.5c-0.3,0-0.5,0.2-0.5,0.5v0c0,0.3,0.2,0.5,0.5,0.5 C7.1,29.4,7.4,29.2,7.4,28.9z M7.4,31L7.4,31c0-0.3-0.2-0.5-0.5-0.5c-0.3,0-0.5,0.2-0.5,0.5v0c0,0.3,0.2,0.5,0.5,0.5 C7.1,31.5,7.4,31.3,7.4,31z M7.4,33L7.4,33c0-0.3-0.2-0.5-0.5-0.5c-0.3,0-0.5,0.2-0.5,0.5v0c0,0.3,0.2,0.5,0.5,0.5 C7.1,33.5,7.4,33.3,7.4,33z M7.4,35L7.4,35c0-0.3-0.2-0.5-0.5-0.5c-0.3,0-0.5,0.2-0.5,0.5v0c0,0.3,0.2,0.5,0.5,0.5 C7.1,35.5,7.4,35.3,7.4,35z M7.4,37.1L7.4,37.1c0-0.3-0.2-0.5-0.5-0.5c-0.3,0-0.5,0.2-0.5,0.5v0c0,0.3,0.2,0.5,0.5,0.5 C7.1,37.6,7.4,37.4,7.4,37.1z M7.4,39.1L7.4,39.1c0-0.3-0.2-0.5-0.5-0.5c-0.3,0-0.5,0.2-0.5,0.5v0c0,0.3,0.2,0.5,0.5,0.5 C7.1,39.6,7.4,39.4,7.4,39.1z M7.4,41.1L7.4,41.1c0-0.3-0.2-0.5-0.5-0.5c-0.3,0-0.5,0.2-0.5,0.5v0c0,0.3,0.2,0.5,0.5,0.5 C7.1,41.6,7.4,41.4,7.4,41.1z M7.4,43.2L7.4,43.2c0-0.3-0.2-0.5-0.5-0.5c-0.3,0-0.5,0.2-0.5,0.5v0c0,0.3,0.2,0.5,0.5,0.5 C7.1,43.7,7.4,43.5,7.4,43.2z M7.4,45.2L7.4,45.2c0-0.3-0.2-0.5-0.5-0.5c-0.3,0-0.5,0.2-0.5,0.5v0c0,0.3,0.2,0.5,0.5,0.5 C7.1,45.7,7.4,45.5,7.4,45.2z M7.4,47.2L7.4,47.2c0-0.3-0.2-0.5-0.5-0.5c-0.3,0-0.5,0.2-0.5,0.5v0c0,0.3,0.2,0.5,0.5,0.5 C7.1,47.7,7.4,47.5,7.4,47.2z M7.4,49.3L7.4,49.3c0-0.3-0.2-0.5-0.5-0.5c-0.3,0-0.5,0.2-0.5,0.5v0c0,0.3,0.2,0.5,0.5,0.5 C7.1,49.8,7.4,49.5,7.4,49.3z M7.4,51.3L7.4,51.3c0-0.3-0.2-0.5-0.5-0.5c-0.3,0-0.5,0.2-0.5,0.5v0c0,0.3,0.2,0.5,0.5,0.5 C7.1,51.8,7.4,51.6,7.4,51.3z M7.4,53.3L7.4,53.3c0-0.3-0.2-0.5-0.5-0.5c-0.3,0-0.5,0.2-0.5,0.5v0c0,0.3,0.2,0.5,0.5,0.5 C7.1,53.8,7.4,53.6,7.4,53.3z M7.4,55.4L7.4,55.4c0-0.3-0.2-0.5-0.5-0.5c-0.3,0-0.5,0.2-0.5,0.5v0c0,0.3,0.2,0.5,0.5,0.5 C7.1,55.9,7.4,55.6,7.4,55.4z M7.4,57.4L7.4,57.4c0-0.3-0.2-0.5-0.5-0.5c-0.3,0-0.5,0.2-0.5,0.5v0c0,0.3,0.2,0.5,0.5,0.5 C7.1,57.9,7.4,57.7,7.4,57.4z M7.4,59.4L7.4,59.4c0-0.3-0.2-0.5-0.5-0.5c-0.3,0-0.5,0.2-0.5,0.5v0c0,0.3,0.2,0.5,0.5,0.5 C7.1,59.9,7.4,59.7,7.4,59.4z M7.4,61.5L7.4,61.5c0-0.3-0.2-0.5-0.5-0.5c-0.3,0-0.5,0.2-0.5,0.5v0c0,0.3,0.2,0.5,0.5,0.5 C7.1,62,7.4,61.7,7.4,61.5z M7.4,63.5L7.4,63.5c0-0.3-0.2-0.5-0.5-0.5c-0.3,0-0.5,0.2-0.5,0.5v0c0,0.3,0.2,0.5,0.5,0.5 C7.1,64,7.4,63.8,7.4,63.5z M7.4,65.5L7.4,65.5c0-0.3-0.2-0.5-0.5-0.5c-0.3,0-0.5,0.2-0.5,0.5v0c0,0.3,0.2,0.5,0.5,0.5 C7.1,66,7.4,65.8,7.4,65.5z M7.4,67.6L7.4,67.6c0-0.3-0.2-0.5-0.5-0.5c-0.3,0-0.5,0.2-0.5,0.5v0c0,0.3,0.2,0.5,0.5,0.5 C7.1,68.1,7.4,67.8,7.4,67.6z M7.4,69.6L7.4,69.6c0-0.3-0.2-0.5-0.5-0.5c-0.3,0-0.5,0.2-0.5,0.5v0c0,0.3,0.2,0.5,0.5,0.5 C7.1,70.1,7.4,69.9,7.4,69.6z M7.4,71.6L7.4,71.6c0-0.3-0.2-0.5-0.5-0.5c-0.3,0-0.5,0.2-0.5,0.5v0c0,0.3,0.2,0.5,0.5,0.5 C7.1,72.1,7.4,71.9,7.4,71.6z M7.4,73.7L7.4,73.7c0-0.3-0.2-0.5-0.5-0.5c-0.3,0-0.5,0.2-0.5,0.5v0c0,0.3,0.2,0.5,0.5,0.5 C7.1,74.2,7.4,73.9,7.4,73.7z M7.4,75.7L7.4,75.7c0-0.3-0.2-0.5-0.5-0.5c-0.3,0-0.5,0.2-0.5,0.5v0c0,0.3,0.2,0.5,0.5,0.5 C7.1,76.2,7.4,76,7.4,75.7z M7.4,77.7L7.4,77.7c0-0.3-0.2-0.5-0.5-0.5c-0.3,0-0.5,0.2-0.5,0.5v0c0,0.3,0.2,0.5,0.5,0.5 C7.1,78.2,7.4,78,7.4,77.7z M7.4,79.8L7.4,79.8c0-0.3-0.2-0.5-0.5-0.5c-0.3,0-0.5,0.2-0.5,0.5v0c0,0.3,0.2,0.5,0.5,0.5 C7.1,80.3,7.4,80,7.4,79.8z M7.4,81.8L7.4,81.8c0-0.3-0.2-0.5-0.5-0.5c-0.3,0-0.5,0.2-0.5,0.5v0c0,0.3,0.2,0.5,0.5,0.5 C7.1,82.3,7.4,82.1,7.4,81.8z M7.4,83.8L7.4,83.8c0-0.3-0.2-0.5-0.5-0.5c-0.3,0-0.5,0.2-0.5,0.5v0c0,0.3,0.2,0.5,0.5,0.5 C7.1,84.3,7.4,84.1,7.4,83.8z M7.4,85.9L7.4,85.9c0-0.3-0.2-0.5-0.5-0.5c-0.3,0-0.5,0.2-0.5,0.5v0c0,0.3,0.2,0.5,0.5,0.5 C7.1,86.4,7.4,86.1,7.4,85.9z M7.4,87.9L7.4,87.9c0-0.3-0.2-0.5-0.5-0.5c-0.3,0-0.5,0.2-0.5,0.5v0c0,0.3,0.2,0.5,0.5,0.5 C7.1,88.4,7.4,88.2,7.4,87.9z M7.4,89.9L7.4,89.9c0-0.3-0.2-0.5-0.5-0.5c-0.3,0-0.5,0.2-0.5,0.5v0c0,0.3,0.2,0.5,0.5,0.5 C7.1,90.4,7.4,90.2,7.4,89.9z M7.4,92L7.4,92c0-0.3-0.2-0.5-0.5-0.5c-0.3,0-0.5,0.2-0.5,0.5v0c0,0.3,0.2,0.5,0.5,0.5 C7.1,92.5,7.4,92.2,7.4,92z M7.4,94L7.4,94c0-0.3-0.2-0.5-0.5-0.5c-0.3,0-0.5,0.2-0.5,0.5v0c0,0.3,0.2,0.5,0.5,0.5 C7.1,94.5,7.4,94.3,7.4,94z M7.4,96L7.4,96c0-0.3-0.2-0.5-0.5-0.5c-0.3,0-0.5,0.2-0.5,0.5v0c0,0.3,0.2,0.5,0.5,0.5 C7.1,96.5,7.4,96.3,7.4,96z M7.4,98.1L7.4,98.1c0-0.3-0.2-0.5-0.5-0.5c-0.3,0-0.5,0.2-0.5,0.5v0c0,0.3,0.2,0.5,0.5,0.5 C7.1,98.6,7.4,98.3,7.4,98.1z M7.4,100.1L7.4,100.1c0-0.3-0.2-0.5-0.5-0.5c-0.3,0-0.5,0.2-0.5,0.5v0c0,0.3,0.2,0.5,0.5,0.5 C7.1,100.6,7.4,100.4,7.4,100.1z M7.4,102.1L7.4,102.1c0-0.3-0.2-0.5-0.5-0.5c-0.3,0-0.5,0.2-0.5,0.5v0c0,0.3,0.2,0.5,0.5,0.5 C7.1,102.6,7.4,102.4,7.4,102.1z M7.4,104.2L7.4,104.2c0-0.3-0.2-0.5-0.5-0.5c-0.3,0-0.5,0.2-0.5,0.5v0c0,0.3,0.2,0.5,0.5,0.5 C7.1,104.7,7.4,104.4,7.4,104.2z M7.4,106.2L7.4,106.2c0-0.3-0.2-0.5-0.5-0.5c-0.3,0-0.5,0.2-0.5,0.5v0c0,0.3,0.2,0.5,0.5,0.5 C7.1,106.7,7.4,106.5,7.4,106.2z M7.4,108.2L7.4,108.2c0-0.3-0.2-0.5-0.5-0.5c-0.3,0-0.5,0.2-0.5,0.5v0c0,0.3,0.2,0.5,0.5,0.5 C7.1,108.7,7.4,108.5,7.4,108.2z M7.4,110.3L7.4,110.3c0-0.3-0.2-0.5-0.5-0.5c-0.3,0-0.5,0.2-0.5,0.5v0c0,0.3,0.2,0.5,0.5,0.5 C7.1,110.8,7.4,110.5,7.4,110.3z M7.4,112.3L7.4,112.3c0-0.3-0.2-0.5-0.5-0.5c-0.3,0-0.5,0.2-0.5,0.5v0c0,0.3,0.2,0.5,0.5,0.5 C7.1,112.8,7.4,112.6,7.4,112.3z M7.4,114.3L7.4,114.3c0-0.3-0.2-0.5-0.5-0.5c-0.3,0-0.5,0.2-0.5,0.5v0c0,0.3,0.2,0.5,0.5,0.5 C7.1,114.8,7.4,114.6,7.4,114.3z M7.4,116.4L7.4,116.4c0-0.3-0.2-0.5-0.5-0.5c-0.3,0-0.5,0.2-0.5,0.5v0c0,0.3,0.2,0.5,0.5,0.5 C7.1,116.9,7.4,116.6,7.4,116.4z M7.4,118.4L7.4,118.4c0-0.3-0.2-0.5-0.5-0.5c-0.3,0-0.5,0.2-0.5,0.5v0c0,0.3,0.2,0.5,0.5,0.5 C7.1,118.9,7.4,118.7,7.4,118.4z M7.4,120.4L7.4,120.4c0-0.3-0.2-0.5-0.5-0.5c-0.3,0-0.5,0.2-0.5,0.5v0c0,0.3,0.2,0.5,0.5,0.5 C7.1,120.9,7.4,120.7,7.4,120.4z M7.4,122.5L7.4,122.5c0-0.3-0.2-0.5-0.5-0.5c-0.3,0-0.5,0.2-0.5,0.5v0c0,0.3,0.2,0.5,0.5,0.5 C7.1,123,7.4,122.7,7.4,122.5z M7.4,124.5L7.4,124.5c0-0.3-0.2-0.5-0.5-0.5c-0.3,0-0.5,0.2-0.5,0.5v0c0,0.3,0.2,0.5,0.5,0.5 C7.1,125,7.4,124.8,7.4,124.5z M7.4,126.5L7.4,126.5c0-0.3-0.2-0.5-0.5-0.5c-0.3,0-0.5,0.2-0.5,0.5v0c0,0.3,0.2,0.5,0.5,0.5 C7.1,127,7.4,126.8,7.4,126.5z M7.4,128.6L7.4,128.6c0-0.3-0.2-0.5-0.5-0.5c-0.3,0-0.5,0.2-0.5,0.5v0c0,0.3,0.2,0.5,0.5,0.5 C7.1,129.1,7.4,128.8,7.4,128.6z M7.4,130.6L7.4,130.6c0-0.3-0.2-0.5-0.5-0.5c-0.3,0-0.5,0.2-0.5,0.5v0c0,0.3,0.2,0.5,0.5,0.5 C7.1,131.1,7.4,130.9,7.4,130.6z M7.4,132.6L7.4,132.6c0-0.3-0.2-0.5-0.5-0.5c-0.3,0-0.5,0.2-0.5,0.5v0c0,0.3,0.2,0.5,0.5,0.5 C7.1,133.1,7.4,132.9,7.4,132.6z M7.4,134.7L7.4,134.7c0-0.3-0.2-0.5-0.5-0.5c-0.3,0-0.5,0.2-0.5,0.5v0c0,0.3,0.2,0.5,0.5,0.5 C7.1,135.2,7.4,134.9,7.4,134.7z M7.4,136.7L7.4,136.7c0-0.3-0.2-0.5-0.5-0.5c-0.3,0-0.5,0.2-0.5,0.5v0c0,0.3,0.2,0.5,0.5,0.5 C7.1,137.2,7.4,137,7.4,136.7z"/><path d="M7.4,6.6L7.4,6.6l-0.5,0v0.5h0C7.2,7.1,7.4,6.8,7.4,6.6c0-0.3-0.2-0.5-0.5-0.5h0c-0.1,0-0.3,0.1-0.4,0.1 C6.4,6.3,6.4,6.4,6.4,6.6v0c0,0.3,0.2,0.5,0.5,0.5C7.1,7.1,7.4,6.9,7.4,6.6z"/><path d="M300.3,7.1L300.3,7.1c0.3,0,0.5-0.2,0.5-0.5s-0.2-0.5-0.5-0.5h0c-0.3,0-0.5,0.2-0.5,0.5S300,7.1,300.3,7.1z M298.3,7.1L298.3,7.1c0.3,0,0.5-0.2,0.5-0.5s-0.2-0.5-0.5-0.5h0c-0.3,0-0.5,0.2-0.5,0.5S298,7.1,298.3,7.1z M296.2,7.1L296.2,7.1 c0.3,0,0.5-0.2,0.5-0.5s-0.2-0.5-0.5-0.5h0c-0.3,0-0.5,0.2-0.5,0.5S296,7.1,296.2,7.1z M294.2,7.1L294.2,7.1c0.3,0,0.5-0.2,0.5-0.5 s-0.2-0.5-0.5-0.5h0c-0.3,0-0.5,0.2-0.5,0.5S293.9,7.1,294.2,7.1z M292.2,7.1L292.2,7.1c0.3,0,0.5-0.2,0.5-0.5s-0.2-0.5-0.5-0.5h0 c-0.3,0-0.5,0.2-0.5,0.5S291.9,7.1,292.2,7.1z M290.2,7.1L290.2,7.1c0.3,0,0.5-0.2,0.5-0.5s-0.2-0.5-0.5-0.5h0 c-0.3,0-0.5,0.2-0.5,0.5S289.9,7.1,290.2,7.1z M288.1,7.1L288.1,7.1c0.3,0,0.5-0.2,0.5-0.5s-0.2-0.5-0.5-0.5h0 c-0.3,0-0.5,0.2-0.5,0.5S287.9,7.1,288.1,7.1z M286.1,7.1L286.1,7.1c0.3,0,0.5-0.2,0.5-0.5s-0.2-0.5-0.5-0.5h0 c-0.3,0-0.5,0.2-0.5,0.5S285.8,7.1,286.1,7.1z M284.1,7.1L284.1,7.1c0.3,0,0.5-0.2,0.5-0.5s-0.2-0.5-0.5-0.5h0 c-0.3,0-0.5,0.2-0.5,0.5S283.8,7.1,284.1,7.1z M282.1,7.1L282.1,7.1c0.3,0,0.5-0.2,0.5-0.5s-0.2-0.5-0.5-0.5h0 c-0.3,0-0.5,0.2-0.5,0.5S281.8,7.1,282.1,7.1z M280,7.1L280,7.1c0.3,0,0.5-0.2,0.5-0.5s-0.2-0.5-0.5-0.5h0c-0.3,0-0.5,0.2-0.5,0.5 S279.8,7.1,280,7.1z M278,7.1L278,7.1c0.3,0,0.5-0.2,0.5-0.5s-0.2-0.5-0.5-0.5h0c-0.3,0-0.5,0.2-0.5,0.5S277.7,7.1,278,7.1z M276,7.1L276,7.1c0.3,0,0.5-0.2,0.5-0.5s-0.2-0.5-0.5-0.5h0c-0.3,0-0.5,0.2-0.5,0.5S275.7,7.1,276,7.1z M274,7.1L274,7.1 c0.3,0,0.5-0.2,0.5-0.5s-0.2-0.5-0.5-0.5h0c-0.3,0-0.5,0.2-0.5,0.5S273.7,7.1,274,7.1z M271.9,7.1L271.9,7.1c0.3,0,0.5-0.2,0.5-0.5 s-0.2-0.5-0.5-0.5h0c-0.3,0-0.5,0.2-0.5,0.5S271.7,7.1,271.9,7.1z M269.9,7.1L269.9,7.1c0.3,0,0.5-0.2,0.5-0.5s-0.2-0.5-0.5-0.5h0 c-0.3,0-0.5,0.2-0.5,0.5S269.6,7.1,269.9,7.1z M267.9,7.1L267.9,7.1c0.3,0,0.5-0.2,0.5-0.5s-0.2-0.5-0.5-0.5h0 c-0.3,0-0.5,0.2-0.5,0.5S267.6,7.1,267.9,7.1z M265.9,7.1L265.9,7.1c0.3,0,0.5-0.2,0.5-0.5s-0.2-0.5-0.5-0.5h0 c-0.3,0-0.5,0.2-0.5,0.5S265.6,7.1,265.9,7.1z M263.9,7.1L263.9,7.1c0.3,0,0.5-0.2,0.5-0.5s-0.2-0.5-0.5-0.5h0 c-0.3,0-0.5,0.2-0.5,0.5S263.6,7.1,263.9,7.1z M261.8,7.1L261.8,7.1c0.3,0,0.5-0.2,0.5-0.5s-0.2-0.5-0.5-0.5h0 c-0.3,0-0.5,0.2-0.5,0.5S261.6,7.1,261.8,7.1z M259.8,7.1L259.8,7.1c0.3,0,0.5-0.2,0.5-0.5s-0.2-0.5-0.5-0.5h0 c-0.3,0-0.5,0.2-0.5,0.5S259.5,7.1,259.8,7.1z M257.8,7.1L257.8,7.1c0.3,0,0.5-0.2,0.5-0.5s-0.2-0.5-0.5-0.5h0 c-0.3,0-0.5,0.2-0.5,0.5S257.5,7.1,257.8,7.1z M255.8,7.1L255.8,7.1c0.3,0,0.5-0.2,0.5-0.5s-0.2-0.5-0.5-0.5h0 c-0.3,0-0.5,0.2-0.5,0.5S255.5,7.1,255.8,7.1z M253.7,7.1L253.7,7.1c0.3,0,0.5-0.2,0.5-0.5s-0.2-0.5-0.5-0.5h0 c-0.3,0-0.5,0.2-0.5,0.5S253.5,7.1,253.7,7.1z M251.7,7.1L251.7,7.1c0.3,0,0.5-0.2,0.5-0.5s-0.2-0.5-0.5-0.5h0 c-0.3,0-0.5,0.2-0.5,0.5S251.4,7.1,251.7,7.1z M249.7,7.1L249.7,7.1c0.3,0,0.5-0.2,0.5-0.5s-0.2-0.5-0.5-0.5h0 c-0.3,0-0.5,0.2-0.5,0.5S249.4,7.1,249.7,7.1z M247.7,7.1L247.7,7.1c0.3,0,0.5-0.2,0.5-0.5s-0.2-0.5-0.5-0.5h0 c-0.3,0-0.5,0.2-0.5,0.5S247.4,7.1,247.7,7.1z M245.6,7.1L245.6,7.1c0.3,0,0.5-0.2,0.5-0.5s-0.2-0.5-0.5-0.5h0 c-0.3,0-0.5,0.2-0.5,0.5S245.4,7.1,245.6,7.1z M243.6,7.1L243.6,7.1c0.3,0,0.5-0.2,0.5-0.5s-0.2-0.5-0.5-0.5h0 c-0.3,0-0.5,0.2-0.5,0.5S243.3,7.1,243.6,7.1z M241.6,7.1L241.6,7.1c0.3,0,0.5-0.2,0.5-0.5s-0.2-0.5-0.5-0.5h0 c-0.3,0-0.5,0.2-0.5,0.5S241.3,7.1,241.6,7.1z M239.6,7.1L239.6,7.1c0.3,0,0.5-0.2,0.5-0.5s-0.2-0.5-0.5-0.5h0 c-0.3,0-0.5,0.2-0.5,0.5S239.3,7.1,239.6,7.1z M237.5,7.1L237.5,7.1c0.3,0,0.5-0.2,0.5-0.5s-0.2-0.5-0.5-0.5h0 c-0.3,0-0.5,0.2-0.5,0.5S237.3,7.1,237.5,7.1z M235.5,7.1L235.5,7.1c0.3,0,0.5-0.2,0.5-0.5s-0.2-0.5-0.5-0.5h0 c-0.3,0-0.5,0.2-0.5,0.5S235.2,7.1,235.5,7.1z M233.5,7.1L233.5,7.1c0.3,0,0.5-0.2,0.5-0.5s-0.2-0.5-0.5-0.5h0 c-0.3,0-0.5,0.2-0.5,0.5S233.2,7.1,233.5,7.1z M231.5,7.1L231.5,7.1c0.3,0,0.5-0.2,0.5-0.5s-0.2-0.5-0.5-0.5h0 c-0.3,0-0.5,0.2-0.5,0.5S231.2,7.1,231.5,7.1z M229.5,7.1L229.5,7.1c0.3,0,0.5-0.2,0.5-0.5s-0.2-0.5-0.5-0.5h0 c-0.3,0-0.5,0.2-0.5,0.5S229.2,7.1,229.5,7.1z M227.4,7.1L227.4,7.1c0.3,0,0.5-0.2,0.5-0.5s-0.2-0.5-0.5-0.5h0 c-0.3,0-0.5,0.2-0.5,0.5S227.2,7.1,227.4,7.1z M225.4,7.1L225.4,7.1c0.3,0,0.5-0.2,0.5-0.5s-0.2-0.5-0.5-0.5h0 c-0.3,0-0.5,0.2-0.5,0.5S225.1,7.1,225.4,7.1z M223.4,7.1L223.4,7.1c0.3,0,0.5-0.2,0.5-0.5s-0.2-0.5-0.5-0.5h0 c-0.3,0-0.5,0.2-0.5,0.5S223.1,7.1,223.4,7.1z M221.4,7.1L221.4,7.1c0.3,0,0.5-0.2,0.5-0.5s-0.2-0.5-0.5-0.5h0 c-0.3,0-0.5,0.2-0.5,0.5S221.1,7.1,221.4,7.1z M219.3,7.1L219.3,7.1c0.3,0,0.5-0.2,0.5-0.5s-0.2-0.5-0.5-0.5h0 c-0.3,0-0.5,0.2-0.5,0.5S219.1,7.1,219.3,7.1z M217.3,7.1L217.3,7.1c0.3,0,0.5-0.2,0.5-0.5s-0.2-0.5-0.5-0.5h0 c-0.3,0-0.5,0.2-0.5,0.5S217,7.1,217.3,7.1z M215.3,7.1L215.3,7.1c0.3,0,0.5-0.2,0.5-0.5s-0.2-0.5-0.5-0.5h0 c-0.3,0-0.5,0.2-0.5,0.5S215,7.1,215.3,7.1z M213.3,7.1L213.3,7.1c0.3,0,0.5-0.2,0.5-0.5s-0.2-0.5-0.5-0.5h0 c-0.3,0-0.5,0.2-0.5,0.5S213,7.1,213.3,7.1z M211.2,7.1L211.2,7.1c0.3,0,0.5-0.2,0.5-0.5s-0.2-0.5-0.5-0.5h0 c-0.3,0-0.5,0.2-0.5,0.5S211,7.1,211.2,7.1z M209.2,7.1L209.2,7.1c0.3,0,0.5-0.2,0.5-0.5s-0.2-0.5-0.5-0.5h0 c-0.3,0-0.5,0.2-0.5,0.5S208.9,7.1,209.2,7.1z M207.2,7.1L207.2,7.1c0.3,0,0.5-0.2,0.5-0.5s-0.2-0.5-0.5-0.5h0 c-0.3,0-0.5,0.2-0.5,0.5S206.9,7.1,207.2,7.1z M205.2,7.1L205.2,7.1c0.3,0,0.5-0.2,0.5-0.5s-0.2-0.5-0.5-0.5h0 c-0.3,0-0.5,0.2-0.5,0.5S204.9,7.1,205.2,7.1z M203.1,7.1L203.1,7.1c0.3,0,0.5-0.2,0.5-0.5s-0.2-0.5-0.5-0.5h0 c-0.3,0-0.5,0.2-0.5,0.5S202.9,7.1,203.1,7.1z M201.1,7.1L201.1,7.1c0.3,0,0.5-0.2,0.5-0.5s-0.2-0.5-0.5-0.5h0 c-0.3,0-0.5,0.2-0.5,0.5S200.8,7.1,201.1,7.1z M199.1,7.1L199.1,7.1c0.3,0,0.5-0.2,0.5-0.5s-0.2-0.5-0.5-0.5h0 c-0.3,0-0.5,0.2-0.5,0.5S198.8,7.1,199.1,7.1z M197.1,7.1L197.1,7.1c0.3,0,0.5-0.2,0.5-0.5s-0.2-0.5-0.5-0.5h0 c-0.3,0-0.5,0.2-0.5,0.5S196.8,7.1,197.1,7.1z M195,7.1L195,7.1c0.3,0,0.5-0.2,0.5-0.5s-0.2-0.5-0.5-0.5h0c-0.3,0-0.5,0.2-0.5,0.5 S194.8,7.1,195,7.1z M193,7.1L193,7.1c0.3,0,0.5-0.2,0.5-0.5s-0.2-0.5-0.5-0.5h0c-0.3,0-0.5,0.2-0.5,0.5S192.7,7.1,193,7.1z M191,7.1L191,7.1c0.3,0,0.5-0.2,0.5-0.5s-0.2-0.5-0.5-0.5h0c-0.3,0-0.5,0.2-0.5,0.5S190.7,7.1,191,7.1z M189,7.1L189,7.1 c0.3,0,0.5-0.2,0.5-0.5s-0.2-0.5-0.5-0.5h0c-0.3,0-0.5,0.2-0.5,0.5S188.7,7.1,189,7.1z M187,7.1L187,7.1c0.3,0,0.5-0.2,0.5-0.5 s-0.2-0.5-0.5-0.5h0c-0.3,0-0.5,0.2-0.5,0.5S186.7,7.1,187,7.1z M184.9,7.1L184.9,7.1c0.3,0,0.5-0.2,0.5-0.5s-0.2-0.5-0.5-0.5h0 c-0.3,0-0.5,0.2-0.5,0.5S184.7,7.1,184.9,7.1z M182.9,7.1L182.9,7.1c0.3,0,0.5-0.2,0.5-0.5s-0.2-0.5-0.5-0.5h0 c-0.3,0-0.5,0.2-0.5,0.5S182.6,7.1,182.9,7.1z M180.9,7.1L180.9,7.1c0.3,0,0.5-0.2,0.5-0.5s-0.2-0.5-0.5-0.5h0 c-0.3,0-0.5,0.2-0.5,0.5S180.6,7.1,180.9,7.1z M178.9,7.1L178.9,7.1c0.3,0,0.5-0.2,0.5-0.5s-0.2-0.5-0.5-0.5h0 c-0.3,0-0.5,0.2-0.5,0.5S178.6,7.1,178.9,7.1z M176.8,7.1L176.8,7.1c0.3,0,0.5-0.2,0.5-0.5s-0.2-0.5-0.5-0.5h0 c-0.3,0-0.5,0.2-0.5,0.5S176.6,7.1,176.8,7.1z M174.8,7.1L174.8,7.1c0.3,0,0.5-0.2,0.5-0.5s-0.2-0.5-0.5-0.5h0 c-0.3,0-0.5,0.2-0.5,0.5S174.5,7.1,174.8,7.1z M172.8,7.1L172.8,7.1c0.3,0,0.5-0.2,0.5-0.5s-0.2-0.5-0.5-0.5h0 c-0.3,0-0.5,0.2-0.5,0.5S172.5,7.1,172.8,7.1z M170.8,7.1L170.8,7.1c0.3,0,0.5-0.2,0.5-0.5s-0.2-0.5-0.5-0.5h0 c-0.3,0-0.5,0.2-0.5,0.5S170.5,7.1,170.8,7.1z M168.7,7.1L168.7,7.1c0.3,0,0.5-0.2,0.5-0.5s-0.2-0.5-0.5-0.5h0 c-0.3,0-0.5,0.2-0.5,0.5S168.5,7.1,168.7,7.1z M166.7,7.1L166.7,7.1c0.3,0,0.5-0.2,0.5-0.5s-0.2-0.5-0.5-0.5h0 c-0.3,0-0.5,0.2-0.5,0.5S166.4,7.1,166.7,7.1z M164.7,7.1L164.7,7.1c0.3,0,0.5-0.2,0.5-0.5s-0.2-0.5-0.5-0.5h0 c-0.3,0-0.5,0.2-0.5,0.5S164.4,7.1,164.7,7.1z M162.7,7.1L162.7,7.1c0.3,0,0.5-0.2,0.5-0.5s-0.2-0.5-0.5-0.5h0 c-0.3,0-0.5,0.2-0.5,0.5S162.4,7.1,162.7,7.1z M160.6,7.1L160.6,7.1c0.3,0,0.5-0.2,0.5-0.5s-0.2-0.5-0.5-0.5h0 c-0.3,0-0.5,0.2-0.5,0.5S160.4,7.1,160.6,7.1z M158.6,7.1L158.6,7.1c0.3,0,0.5-0.2,0.5-0.5s-0.2-0.5-0.5-0.5h0 c-0.3,0-0.5,0.2-0.5,0.5S158.3,7.1,158.6,7.1z M156.6,7.1L156.6,7.1c0.3,0,0.5-0.2,0.5-0.5s-0.2-0.5-0.5-0.5h0 c-0.3,0-0.5,0.2-0.5,0.5S156.3,7.1,156.6,7.1z M154.6,7.1L154.6,7.1c0.3,0,0.5-0.2,0.5-0.5s-0.2-0.5-0.5-0.5h0 c-0.3,0-0.5,0.2-0.5,0.5S154.3,7.1,154.6,7.1z M152.6,7.1L152.6,7.1c0.3,0,0.5-0.2,0.5-0.5s-0.2-0.5-0.5-0.5h0 c-0.3,0-0.5,0.2-0.5,0.5S152.3,7.1,152.6,7.1z M150.5,7.1L150.5,7.1c0.3,0,0.5-0.2,0.5-0.5s-0.2-0.5-0.5-0.5h0 c-0.3,0-0.5,0.2-0.5,0.5S150.3,7.1,150.5,7.1z M148.5,7.1L148.5,7.1c0.3,0,0.5-0.2,0.5-0.5s-0.2-0.5-0.5-0.5h0 c-0.3,0-0.5,0.2-0.5,0.5S148.2,7.1,148.5,7.1z M146.5,7.1L146.5,7.1c0.3,0,0.5-0.2,0.5-0.5s-0.2-0.5-0.5-0.5h0 c-0.3,0-0.5,0.2-0.5,0.5S146.2,7.1,146.5,7.1z M144.5,7.1L144.5,7.1c0.3,0,0.5-0.2,0.5-0.5s-0.2-0.5-0.5-0.5h0 c-0.3,0-0.5,0.2-0.5,0.5S144.2,7.1,144.5,7.1z M142.4,7.1L142.4,7.1c0.3,0,0.5-0.2,0.5-0.5s-0.2-0.5-0.5-0.5h0 c-0.3,0-0.5,0.2-0.5,0.5S142.2,7.1,142.4,7.1z M140.4,7.1L140.4,7.1c0.3,0,0.5-0.2,0.5-0.5s-0.2-0.5-0.5-0.5h0 c-0.3,0-0.5,0.2-0.5,0.5S140.1,7.1,140.4,7.1z M138.4,7.1L138.4,7.1c0.3,0,0.5-0.2,0.5-0.5s-0.2-0.5-0.5-0.5h0 c-0.3,0-0.5,0.2-0.5,0.5S138.1,7.1,138.4,7.1z M136.4,7.1L136.4,7.1c0.3,0,0.5-0.2,0.5-0.5s-0.2-0.5-0.5-0.5h0 c-0.3,0-0.5,0.2-0.5,0.5S136.1,7.1,136.4,7.1z M134.3,7.1L134.3,7.1c0.3,0,0.5-0.2,0.5-0.5s-0.2-0.5-0.5-0.5h0 c-0.3,0-0.5,0.2-0.5,0.5S134.1,7.1,134.3,7.1z M132.3,7.1L132.3,7.1c0.3,0,0.5-0.2,0.5-0.5s-0.2-0.5-0.5-0.5h0 c-0.3,0-0.5,0.2-0.5,0.5S132,7.1,132.3,7.1z M130.3,7.1L130.3,7.1c0.3,0,0.5-0.2,0.5-0.5s-0.2-0.5-0.5-0.5h0 c-0.3,0-0.5,0.2-0.5,0.5S130,7.1,130.3,7.1z M128.3,7.1L128.3,7.1c0.3,0,0.5-0.2,0.5-0.5s-0.2-0.5-0.5-0.5h0 c-0.3,0-0.5,0.2-0.5,0.5S128,7.1,128.3,7.1z M126.2,7.1L126.2,7.1c0.3,0,0.5-0.2,0.5-0.5s-0.2-0.5-0.5-0.5h0 c-0.3,0-0.5,0.2-0.5,0.5S126,7.1,126.2,7.1z M124.2,7.1L124.2,7.1c0.3,0,0.5-0.2,0.5-0.5s-0.2-0.5-0.5-0.5h0 c-0.3,0-0.5,0.2-0.5,0.5S123.9,7.1,124.2,7.1z M122.2,7.1L122.2,7.1c0.3,0,0.5-0.2,0.5-0.5s-0.2-0.5-0.5-0.5h0 c-0.3,0-0.5,0.2-0.5,0.5S121.9,7.1,122.2,7.1z M120.2,7.1L120.2,7.1c0.3,0,0.5-0.2,0.5-0.5s-0.2-0.5-0.5-0.5h0 c-0.3,0-0.5,0.2-0.5,0.5S119.9,7.1,120.2,7.1z M118.2,7.1L118.2,7.1c0.3,0,0.5-0.2,0.5-0.5s-0.2-0.5-0.5-0.5h0 c-0.3,0-0.5,0.2-0.5,0.5S117.9,7.1,118.2,7.1z M116.1,7.1L116.1,7.1c0.3,0,0.5-0.2,0.5-0.5s-0.2-0.5-0.5-0.5h0 c-0.3,0-0.5,0.2-0.5,0.5S115.9,7.1,116.1,7.1z M114.1,7.1L114.1,7.1c0.3,0,0.5-0.2,0.5-0.5s-0.2-0.5-0.5-0.5h0 c-0.3,0-0.5,0.2-0.5,0.5S113.8,7.1,114.1,7.1z M112.1,7.1L112.1,7.1c0.3,0,0.5-0.2,0.5-0.5s-0.2-0.5-0.5-0.5h0 c-0.3,0-0.5,0.2-0.5,0.5S111.8,7.1,112.1,7.1z M110.1,7.1L110.1,7.1c0.3,0,0.5-0.2,0.5-0.5s-0.2-0.5-0.5-0.5h0 c-0.3,0-0.5,0.2-0.5,0.5S109.8,7.1,110.1,7.1z M108,7.1L108,7.1c0.3,0,0.5-0.2,0.5-0.5s-0.2-0.5-0.5-0.5h0c-0.3,0-0.5,0.2-0.5,0.5 S107.8,7.1,108,7.1z M106,7.1L106,7.1c0.3,0,0.5-0.2,0.5-0.5s-0.2-0.5-0.5-0.5h0c-0.3,0-0.5,0.2-0.5,0.5S105.7,7.1,106,7.1z M104,7.1L104,7.1c0.3,0,0.5-0.2,0.5-0.5s-0.2-0.5-0.5-0.5h0c-0.3,0-0.5,0.2-0.5,0.5S103.7,7.1,104,7.1z M102,7.1L102,7.1 c0.3,0,0.5-0.2,0.5-0.5s-0.2-0.5-0.5-0.5h0c-0.3,0-0.5,0.2-0.5,0.5S101.7,7.1,102,7.1z M99.9,7.1L99.9,7.1c0.3,0,0.5-0.2,0.5-0.5 s-0.2-0.5-0.5-0.5h0c-0.3,0-0.5,0.2-0.5,0.5S99.7,7.1,99.9,7.1z M97.9,7.1L97.9,7.1c0.3,0,0.5-0.2,0.5-0.5s-0.2-0.5-0.5-0.5h0 c-0.3,0-0.5,0.2-0.5,0.5S97.6,7.1,97.9,7.1z M95.9,7.1L95.9,7.1c0.3,0,0.5-0.2,0.5-0.5s-0.2-0.5-0.5-0.5h0c-0.3,0-0.5,0.2-0.5,0.5 S95.6,7.1,95.9,7.1z M93.9,7.1L93.9,7.1c0.3,0,0.5-0.2,0.5-0.5s-0.2-0.5-0.5-0.5h0c-0.3,0-0.5,0.2-0.5,0.5S93.6,7.1,93.9,7.1z M91.8,7.1L91.8,7.1c0.3,0,0.5-0.2,0.5-0.5s-0.2-0.5-0.5-0.5h0c-0.3,0-0.5,0.2-0.5,0.5S91.6,7.1,91.8,7.1z M89.8,7.1L89.8,7.1 c0.3,0,0.5-0.2,0.5-0.5s-0.2-0.5-0.5-0.5h0c-0.3,0-0.5,0.2-0.5,0.5S89.5,7.1,89.8,7.1z M87.8,7.1L87.8,7.1c0.3,0,0.5-0.2,0.5-0.5 s-0.2-0.5-0.5-0.5h0c-0.3,0-0.5,0.2-0.5,0.5S87.5,7.1,87.8,7.1z M85.8,7.1L85.8,7.1c0.3,0,0.5-0.2,0.5-0.5s-0.2-0.5-0.5-0.5h0 c-0.3,0-0.5,0.2-0.5,0.5S85.5,7.1,85.8,7.1z M83.7,7.1L83.7,7.1c0.3,0,0.5-0.2,0.5-0.5s-0.2-0.5-0.5-0.5h0c-0.3,0-0.5,0.2-0.5,0.5 S83.5,7.1,83.7,7.1z M81.7,7.1L81.7,7.1c0.3,0,0.5-0.2,0.5-0.5S82,6.1,81.8,6.1h0c-0.3,0-0.5,0.2-0.5,0.5S81.4,7.1,81.7,7.1z M79.7,7.1L79.7,7.1c0.3,0,0.5-0.2,0.5-0.5S80,6.1,79.7,6.1h0c-0.3,0-0.5,0.2-0.5,0.5S79.4,7.1,79.7,7.1z M77.7,7.1L77.7,7.1 c0.3,0,0.5-0.2,0.5-0.5S78,6.1,77.7,6.1h0c-0.3,0-0.5,0.2-0.5,0.5S77.4,7.1,77.7,7.1z M75.7,7.1L75.7,7.1c0.3,0,0.5-0.2,0.5-0.5 S76,6.1,75.7,6.1h0c-0.3,0-0.5,0.2-0.5,0.5S75.4,7.1,75.7,7.1z M73.6,7.1L73.6,7.1c0.3,0,0.5-0.2,0.5-0.5s-0.2-0.5-0.5-0.5h0 c-0.3,0-0.5,0.2-0.5,0.5S73.4,7.1,73.6,7.1z M71.6,7.1L71.6,7.1c0.3,0,0.5-0.2,0.5-0.5s-0.2-0.5-0.5-0.5h0c-0.3,0-0.5,0.2-0.5,0.5 S71.3,7.1,71.6,7.1z M69.6,7.1L69.6,7.1c0.3,0,0.5-0.2,0.5-0.5s-0.2-0.5-0.5-0.5h0c-0.3,0-0.5,0.2-0.5,0.5S69.3,7.1,69.6,7.1z M67.6,7.1L67.6,7.1c0.3,0,0.5-0.2,0.5-0.5s-0.2-0.5-0.5-0.5h0c-0.3,0-0.5,0.2-0.5,0.5S67.3,7.1,67.6,7.1z M65.5,7.1L65.5,7.1 c0.3,0,0.5-0.2,0.5-0.5s-0.2-0.5-0.5-0.5h0c-0.3,0-0.5,0.2-0.5,0.5S65.3,7.1,65.5,7.1z M63.5,7.1L63.5,7.1c0.3,0,0.5-0.2,0.5-0.5 s-0.2-0.5-0.5-0.5h0c-0.3,0-0.5,0.2-0.5,0.5S63.2,7.1,63.5,7.1z M61.5,7.1L61.5,7.1c0.3,0,0.5-0.2,0.5-0.5s-0.2-0.5-0.5-0.5h0 c-0.3,0-0.5,0.2-0.5,0.5S61.2,7.1,61.5,7.1z M59.5,7.1L59.5,7.1c0.3,0,0.5-0.2,0.5-0.5s-0.2-0.5-0.5-0.5h0c-0.3,0-0.5,0.2-0.5,0.5 S59.2,7.1,59.5,7.1z M57.4,7.1L57.4,7.1c0.3,0,0.5-0.2,0.5-0.5s-0.2-0.5-0.5-0.5h0c-0.3,0-0.5,0.2-0.5,0.5S57.2,7.1,57.4,7.1z M55.4,7.1L55.4,7.1c0.3,0,0.5-0.2,0.5-0.5s-0.2-0.5-0.5-0.5h0c-0.3,0-0.5,0.2-0.5,0.5S55.1,7.1,55.4,7.1z M53.4,7.1L53.4,7.1 c0.3,0,0.5-0.2,0.5-0.5s-0.2-0.5-0.5-0.5h0c-0.3,0-0.5,0.2-0.5,0.5S53.1,7.1,53.4,7.1z M51.4,7.1L51.4,7.1c0.3,0,0.5-0.2,0.5-0.5 s-0.2-0.5-0.5-0.5h0c-0.3,0-0.5,0.2-0.5,0.5S51.1,7.1,51.4,7.1z M49.3,7.1L49.3,7.1c0.3,0,0.5-0.2,0.5-0.5s-0.2-0.5-0.5-0.5h0 c-0.3,0-0.5,0.2-0.5,0.5S49.1,7.1,49.3,7.1z M47.3,7.1L47.3,7.1c0.3,0,0.5-0.2,0.5-0.5s-0.2-0.5-0.5-0.5h0c-0.3,0-0.5,0.2-0.5,0.5 S47,7.1,47.3,7.1z M45.3,7.1L45.3,7.1c0.3,0,0.5-0.2,0.5-0.5s-0.2-0.5-0.5-0.5h0c-0.3,0-0.5,0.2-0.5,0.5S45,7.1,45.3,7.1z M43.3,7.1L43.3,7.1c0.3,0,0.5-0.2,0.5-0.5s-0.2-0.5-0.5-0.5h0c-0.3,0-0.5,0.2-0.5,0.5S43,7.1,43.3,7.1z M41.3,7.1L41.3,7.1 c0.3,0,0.5-0.2,0.5-0.5s-0.2-0.5-0.5-0.5h0c-0.3,0-0.5,0.2-0.5,0.5S41,7.1,41.3,7.1z M39.2,7.1L39.2,7.1c0.3,0,0.5-0.2,0.5-0.5 s-0.2-0.5-0.5-0.5h0c-0.3,0-0.5,0.2-0.5,0.5S39,7.1,39.2,7.1z M37.2,7.1L37.2,7.1c0.3,0,0.5-0.2,0.5-0.5s-0.2-0.5-0.5-0.5h0 c-0.3,0-0.5,0.2-0.5,0.5S36.9,7.1,37.2,7.1z M35.2,7.1L35.2,7.1c0.3,0,0.5-0.2,0.5-0.5s-0.2-0.5-0.5-0.5h0c-0.3,0-0.5,0.2-0.5,0.5 S34.9,7.1,35.2,7.1z M33.2,7.1L33.2,7.1c0.3,0,0.5-0.2,0.5-0.5s-0.2-0.5-0.5-0.5h0c-0.3,0-0.5,0.2-0.5,0.5S32.9,7.1,33.2,7.1z M31.1,7.1L31.1,7.1c0.3,0,0.5-0.2,0.5-0.5s-0.2-0.5-0.5-0.5h0c-0.3,0-0.5,0.2-0.5,0.5S30.9,7.1,31.1,7.1z M29.1,7.1L29.1,7.1 c0.3,0,0.5-0.2,0.5-0.5s-0.2-0.5-0.5-0.5h0c-0.3,0-0.5,0.2-0.5,0.5S28.8,7.1,29.1,7.1z M27.1,7.1L27.1,7.1c0.3,0,0.5-0.2,0.5-0.5 s-0.2-0.5-0.5-0.5h0c-0.3,0-0.5,0.2-0.5,0.5S26.8,7.1,27.1,7.1z M25.1,7.1L25.1,7.1c0.3,0,0.5-0.2,0.5-0.5s-0.2-0.5-0.5-0.5h0 c-0.3,0-0.5,0.2-0.5,0.5S24.8,7.1,25.1,7.1z M23,7.1L23,7.1c0.3,0,0.5-0.2,0.5-0.5s-0.2-0.5-0.5-0.5h0c-0.3,0-0.5,0.2-0.5,0.5 S22.8,7.1,23,7.1z M21,7.1L21,7.1c0.3,0,0.5-0.2,0.5-0.5S21.3,6.1,21,6.1h0c-0.3,0-0.5,0.2-0.5,0.5S20.7,7.1,21,7.1z M19,7.1 L19,7.1c0.3,0,0.5-0.2,0.5-0.5S19.3,6.1,19,6.1h0c-0.3,0-0.5,0.2-0.5,0.5S18.7,7.1,19,7.1z M17,7.1L17,7.1c0.3,0,0.5-0.2,0.5-0.5 S17.3,6.1,17,6.1h0c-0.3,0-0.5,0.2-0.5,0.5S16.7,7.1,17,7.1z M14.9,7.1L14.9,7.1c0.3,0,0.5-0.2,0.5-0.5S15.3,6.1,15,6.1h0 c-0.3,0-0.5,0.2-0.5,0.5S14.7,7.1,14.9,7.1z M12.9,7.1L12.9,7.1c0.3,0,0.5-0.2,0.5-0.5S13.2,6.1,13,6.1h0c-0.3,0-0.5,0.2-0.5,0.5 S12.6,7.1,12.9,7.1z M10.9,7.1L10.9,7.1c0.3,0,0.5-0.2,0.5-0.5s-0.2-0.5-0.5-0.5h0c-0.3,0-0.5,0.2-0.5,0.5S10.6,7.1,10.9,7.1z M8.9,7.1L8.9,7.1c0.3,0,0.5-0.2,0.5-0.5S9.2,6.1,8.9,6.1h0c-0.3,0-0.5,0.2-0.5,0.5S8.6,7.1,8.9,7.1z"/><path d="M302.3,7.1L302.3,7.1l0-0.5h-0.5v0C301.8,6.9,302,7.1,302.3,7.1c0.3,0,0.5-0.2,0.5-0.5v0 c0-0.1-0.1-0.3-0.1-0.4c-0.1-0.1-0.2-0.1-0.4-0.1h0c-0.3,0-0.5,0.2-0.5,0.5S302,7.1,302.3,7.1z"/><path d="M301.8,136.7L301.8,136.7c0,0.3,0.2,0.5,0.5,0.5s0.5-0.2,0.5-0.5v0c0-0.3-0.2-0.5-0.5-0.5 S301.8,136.4,301.8,136.7z M301.8,134.6L301.8,134.6c0,0.3,0.2,0.5,0.5,0.5s0.5-0.2,0.5-0.5v0c0-0.3-0.2-0.5-0.5-0.5 S301.8,134.4,301.8,134.6z M301.8,132.6L301.8,132.6c0,0.3,0.2,0.5,0.5,0.5s0.5-0.2,0.5-0.5v0c0-0.3-0.2-0.5-0.5-0.5 S301.8,132.3,301.8,132.6z M301.8,130.6L301.8,130.6c0,0.3,0.2,0.5,0.5,0.5s0.5-0.2,0.5-0.5v0c0-0.3-0.2-0.5-0.5-0.5 S301.8,130.3,301.8,130.6z M301.8,128.5L301.8,128.5c0,0.3,0.2,0.5,0.5,0.5s0.5-0.2,0.5-0.5v0c0-0.3-0.2-0.5-0.5-0.5 S301.8,128.3,301.8,128.5z M301.8,126.5L301.8,126.5c0,0.3,0.2,0.5,0.5,0.5s0.5-0.2,0.5-0.5v0c0-0.3-0.2-0.5-0.5-0.5 S301.8,126.2,301.8,126.5z M301.8,124.5L301.8,124.5c0,0.3,0.2,0.5,0.5,0.5s0.5-0.2,0.5-0.5v0c0-0.3-0.2-0.5-0.5-0.5 S301.8,124.2,301.8,124.5z M301.8,122.4L301.8,122.4c0,0.3,0.2,0.5,0.5,0.5s0.5-0.2,0.5-0.5v0c0-0.3-0.2-0.5-0.5-0.5 S301.8,122.2,301.8,122.4z M301.8,120.4L301.8,120.4c0,0.3,0.2,0.5,0.5,0.5s0.5-0.2,0.5-0.5v0c0-0.3-0.2-0.5-0.5-0.5 S301.8,120.1,301.8,120.4z M301.8,118.4L301.8,118.4c0,0.3,0.2,0.5,0.5,0.5s0.5-0.2,0.5-0.5v0c0-0.3-0.2-0.5-0.5-0.5 S301.8,118.1,301.8,118.4z M301.8,116.3L301.8,116.3c0,0.3,0.2,0.5,0.5,0.5s0.5-0.2,0.5-0.5v0c0-0.3-0.2-0.5-0.5-0.5 S301.8,116.1,301.8,116.3z M301.8,114.3L301.8,114.3c0,0.3,0.2,0.5,0.5,0.5s0.5-0.2,0.5-0.5v0c0-0.3-0.2-0.5-0.5-0.5 S301.8,114,301.8,114.3z M301.8,112.3L301.8,112.3c0,0.3,0.2,0.5,0.5,0.5s0.5-0.2,0.5-0.5v0c0-0.3-0.2-0.5-0.5-0.5 S301.8,112,301.8,112.3z M301.8,110.2L301.8,110.2c0,0.3,0.2,0.5,0.5,0.5s0.5-0.2,0.5-0.5v0c0-0.3-0.2-0.5-0.5-0.5 S301.8,110,301.8,110.2z M301.8,108.2L301.8,108.2c0,0.3,0.2,0.5,0.5,0.5s0.5-0.2,0.5-0.5v0c0-0.3-0.2-0.5-0.5-0.5 S301.8,107.9,301.8,108.2z M301.8,106.2L301.8,106.2c0,0.3,0.2,0.5,0.5,0.5s0.5-0.2,0.5-0.5v0c0-0.3-0.2-0.5-0.5-0.5 S301.8,105.9,301.8,106.2z M301.8,104.1L301.8,104.1c0,0.3,0.2,0.5,0.5,0.5s0.5-0.2,0.5-0.5v0c0-0.3-0.2-0.5-0.5-0.5 S301.8,103.9,301.8,104.1z M301.8,102.1L301.8,102.1c0,0.3,0.2,0.5,0.5,0.5s0.5-0.2,0.5-0.5v0c0-0.3-0.2-0.5-0.5-0.5 S301.8,101.8,301.8,102.1z M301.8,100.1L301.8,100.1c0,0.3,0.2,0.5,0.5,0.5s0.5-0.2,0.5-0.5v0c0-0.3-0.2-0.5-0.5-0.5 S301.8,99.8,301.8,100.1z M301.8,98L301.8,98c0,0.3,0.2,0.5,0.5,0.5s0.5-0.2,0.5-0.5v0c0-0.3-0.2-0.5-0.5-0.5S301.8,97.8,301.8,98z M301.8,96L301.8,96c0,0.3,0.2,0.5,0.5,0.5s0.5-0.2,0.5-0.5v0c0-0.3-0.2-0.5-0.5-0.5S301.8,95.7,301.8,96z M301.8,94L301.8,94 c0,0.3,0.2,0.5,0.5,0.5s0.5-0.2,0.5-0.5v0c0-0.3-0.2-0.5-0.5-0.5S301.8,93.7,301.8,94z M301.8,91.9L301.8,91.9 c0,0.3,0.2,0.5,0.5,0.5s0.5-0.2,0.5-0.5v0c0-0.3-0.2-0.5-0.5-0.5S301.8,91.7,301.8,91.9z M301.8,89.9L301.8,89.9 c0,0.3,0.2,0.5,0.5,0.5s0.5-0.2,0.5-0.5v0c0-0.3-0.2-0.5-0.5-0.5S301.8,89.6,301.8,89.9z M301.8,87.9L301.8,87.9 c0,0.3,0.2,0.5,0.5,0.5s0.5-0.2,0.5-0.5v0c0-0.3-0.2-0.5-0.5-0.5S301.8,87.6,301.8,87.9z M301.8,85.8L301.8,85.8 c0,0.3,0.2,0.5,0.5,0.5s0.5-0.2,0.5-0.5v0c0-0.3-0.2-0.5-0.5-0.5S301.8,85.6,301.8,85.8z M301.8,83.8L301.8,83.8 c0,0.3,0.2,0.5,0.5,0.5s0.5-0.2,0.5-0.5v0c0-0.3-0.2-0.5-0.5-0.5S301.8,83.5,301.8,83.8z M301.8,81.8L301.8,81.8 c0,0.3,0.2,0.5,0.5,0.5s0.5-0.2,0.5-0.5v0c0-0.3-0.2-0.5-0.5-0.5S301.8,81.5,301.8,81.8z M301.8,79.7L301.8,79.7 c0,0.3,0.2,0.5,0.5,0.5s0.5-0.2,0.5-0.5v0c0-0.3-0.2-0.5-0.5-0.5S301.8,79.5,301.8,79.7z M301.8,77.7L301.8,77.7 c0,0.3,0.2,0.5,0.5,0.5s0.5-0.2,0.5-0.5v0c0-0.3-0.2-0.5-0.5-0.5S301.8,77.4,301.8,77.7z M301.8,75.7L301.8,75.7 c0,0.3,0.2,0.5,0.5,0.5s0.5-0.2,0.5-0.5v0c0-0.3-0.2-0.5-0.5-0.5S301.8,75.4,301.8,75.7z M301.8,73.6L301.8,73.6 c0,0.3,0.2,0.5,0.5,0.5s0.5-0.2,0.5-0.5v0c0-0.3-0.2-0.5-0.5-0.5S301.8,73.4,301.8,73.6z M301.8,71.6L301.8,71.6 c0,0.3,0.2,0.5,0.5,0.5s0.5-0.2,0.5-0.5v0c0-0.3-0.2-0.5-0.5-0.5S301.8,71.3,301.8,71.6z M301.8,69.6L301.8,69.6 c0,0.3,0.2,0.5,0.5,0.5s0.5-0.2,0.5-0.5v0c0-0.3-0.2-0.5-0.5-0.5S301.8,69.3,301.8,69.6z M301.8,67.5L301.8,67.5 c0,0.3,0.2,0.5,0.5,0.5s0.5-0.2,0.5-0.5v0c0-0.3-0.2-0.5-0.5-0.5S301.8,67.3,301.8,67.5z M301.8,65.5L301.8,65.5 c0,0.3,0.2,0.5,0.5,0.5s0.5-0.2,0.5-0.5v0c0-0.3-0.2-0.5-0.5-0.5S301.8,65.2,301.8,65.5z M301.8,63.5L301.8,63.5 c0,0.3,0.2,0.5,0.5,0.5s0.5-0.2,0.5-0.5v0c0-0.3-0.2-0.5-0.5-0.5S301.8,63.2,301.8,63.5z M301.8,61.4L301.8,61.4 c0,0.3,0.2,0.5,0.5,0.5s0.5-0.2,0.5-0.5v0c0-0.3-0.2-0.5-0.5-0.5S301.8,61.2,301.8,61.4z M301.8,59.4L301.8,59.4 c0,0.3,0.2,0.5,0.5,0.5s0.5-0.2,0.5-0.5v0c0-0.3-0.2-0.5-0.5-0.5S301.8,59.1,301.8,59.4z M301.8,57.4L301.8,57.4 c0,0.3,0.2,0.5,0.5,0.5s0.5-0.2,0.5-0.5v0c0-0.3-0.2-0.5-0.5-0.5S301.8,57.1,301.8,57.4z M301.8,55.3L301.8,55.3 c0,0.3,0.2,0.5,0.5,0.5s0.5-0.2,0.5-0.5v0c0-0.3-0.2-0.5-0.5-0.5S301.8,55.1,301.8,55.3z M301.8,53.3L301.8,53.3 c0,0.3,0.2,0.5,0.5,0.5s0.5-0.2,0.5-0.5v0c0-0.3-0.2-0.5-0.5-0.5S301.8,53,301.8,53.3z M301.8,51.3L301.8,51.3 c0,0.3,0.2,0.5,0.5,0.5s0.5-0.2,0.5-0.5v0c0-0.3-0.2-0.5-0.5-0.5S301.8,51,301.8,51.3z M301.8,49.2L301.8,49.2 c0,0.3,0.2,0.5,0.5,0.5s0.5-0.2,0.5-0.5v0c0-0.3-0.2-0.5-0.5-0.5S301.8,49,301.8,49.2z M301.8,47.2L301.8,47.2 c0,0.3,0.2,0.5,0.5,0.5s0.5-0.2,0.5-0.5v0c0-0.3-0.2-0.5-0.5-0.5S301.8,46.9,301.8,47.2z M301.8,45.2L301.8,45.2 c0,0.3,0.2,0.5,0.5,0.5s0.5-0.2,0.5-0.5v0c0-0.3-0.2-0.5-0.5-0.5S301.8,44.9,301.8,45.2z M301.8,43.1L301.8,43.1 c0,0.3,0.2,0.5,0.5,0.5s0.5-0.2,0.5-0.5v0c0-0.3-0.2-0.5-0.5-0.5S301.8,42.9,301.8,43.1z M301.8,41.1L301.8,41.1 c0,0.3,0.2,0.5,0.5,0.5s0.5-0.2,0.5-0.5v0c0-0.3-0.2-0.5-0.5-0.5S301.8,40.8,301.8,41.1z M301.8,39.1L301.8,39.1 c0,0.3,0.2,0.5,0.5,0.5s0.5-0.2,0.5-0.5v0c0-0.3-0.2-0.5-0.5-0.5S301.8,38.8,301.8,39.1z M301.8,37L301.8,37c0,0.3,0.2,0.5,0.5,0.5 s0.5-0.2,0.5-0.5v0c0-0.3-0.2-0.5-0.5-0.5S301.8,36.8,301.8,37z M301.8,35L301.8,35c0,0.3,0.2,0.5,0.5,0.5s0.5-0.2,0.5-0.5v0 c0-0.3-0.2-0.5-0.5-0.5S301.8,34.7,301.8,35z M301.8,33L301.8,33c0,0.3,0.2,0.5,0.5,0.5s0.5-0.2,0.5-0.5v0c0-0.3-0.2-0.5-0.5-0.5 S301.8,32.7,301.8,33z M301.8,30.9L301.8,30.9c0,0.3,0.2,0.5,0.5,0.5s0.5-0.2,0.5-0.5v0c0-0.3-0.2-0.5-0.5-0.5 S301.8,30.7,301.8,30.9z M301.8,28.9L301.8,28.9c0,0.3,0.2,0.5,0.5,0.5s0.5-0.2,0.5-0.5v0c0-0.3-0.2-0.5-0.5-0.5 S301.8,28.6,301.8,28.9z M301.8,26.9L301.8,26.9c0,0.3,0.2,0.5,0.5,0.5s0.5-0.2,0.5-0.5v0c0-0.3-0.2-0.5-0.5-0.5 S301.8,26.6,301.8,26.9z M301.8,24.8L301.8,24.8c0,0.3,0.2,0.5,0.5,0.5s0.5-0.2,0.5-0.5v0c0-0.3-0.2-0.5-0.5-0.5 S301.8,24.6,301.8,24.8z M301.8,22.8L301.8,22.8c0,0.3,0.2,0.5,0.5,0.5s0.5-0.2,0.5-0.5v0c0-0.3-0.2-0.5-0.5-0.5 S301.8,22.5,301.8,22.8z M301.8,20.8L301.8,20.8c0,0.3,0.2,0.5,0.5,0.5s0.5-0.2,0.5-0.5v0c0-0.3-0.2-0.5-0.5-0.5 S301.8,20.5,301.8,20.8z M301.8,18.7L301.8,18.7c0,0.3,0.2,0.5,0.5,0.5s0.5-0.2,0.5-0.5v0c0-0.3-0.2-0.5-0.5-0.5 S301.8,18.5,301.8,18.7z M301.8,16.7L301.8,16.7c0,0.3,0.2,0.5,0.5,0.5s0.5-0.2,0.5-0.5v0c0-0.3-0.2-0.5-0.5-0.5 S301.8,16.4,301.8,16.7z M301.8,14.7L301.8,14.7c0,0.3,0.2,0.5,0.5,0.5s0.5-0.2,0.5-0.5v0c0-0.3-0.2-0.5-0.5-0.5 S301.8,14.4,301.8,14.7z M301.8,12.7L301.8,12.7c0,0.3,0.2,0.5,0.5,0.5s0.5-0.2,0.5-0.5v0c0-0.3-0.2-0.5-0.5-0.5 S301.8,12.4,301.8,12.7z M301.8,10.6L301.8,10.6c0,0.3,0.2,0.5,0.5,0.5s0.5-0.2,0.5-0.5v0c0-0.3-0.2-0.5-0.5-0.5 S301.8,10.3,301.8,10.6z M301.8,8.6L301.8,8.6c0,0.3,0.2,0.5,0.5,0.5s0.5-0.2,0.5-0.5v0c0-0.3-0.2-0.5-0.5-0.5S301.8,8.3,301.8,8.6 z"/></g></svg>